<svg width="14" height="17" viewBox="0 0 14 17" fill="none" xmlns="http://www.w3.org/2000/svg">
<path d="M1.88101 16.052C1.40469 16.0519 0.939089 15.9106 0.543011 15.646C0.375254 15.5341 0.237851 15.3824 0.143091 15.2044C0.0483322 15.0264 -0.000827289 14.8276 1.05323e-05 14.626V8.05399C1.05323e-05 7.26299 0.826011 6.64099 1.88101 6.64099C2.93601 6.64099 3.76201 7.26099 3.76201 8.05199V14.626C3.76231 14.8267 3.71298 15.0244 3.61842 15.2015C3.52386 15.3786 3.387 15.5296 3.22001 15.641C2.82391 15.9063 2.35776 16.0477 1.88101 16.047V16.052ZM0.940011 14.628C0.939723 14.6746 0.950989 14.7205 0.972803 14.7617C0.994616 14.8029 1.0263 14.838 1.06501 14.864C1.30641 15.0257 1.59043 15.1121 1.88101 15.1121C2.17159 15.1121 2.45561 15.0257 2.69701 14.864C2.7354 14.838 2.76679 14.803 2.78842 14.762C2.81005 14.721 2.82124 14.6753 2.82101 14.629V9.28299C2.21761 9.52629 1.54341 9.52629 0.940011 9.28299V14.628ZM1.88101 7.58299C1.35101 7.58299 0.940011 7.83599 0.940011 8.05299C0.940011 8.26999 1.35101 8.52299 1.88101 8.52299C2.41101 8.52299 2.82201 8.26999 2.82201 8.05299C2.82201 7.83599 2.41101 7.58399 1.88101 7.58399V7.58299Z" fill="#43B8FF"/>
<path d="M6.58401 16.0529C6.10769 16.0528 5.64209 15.9115 5.24601 15.6469C5.07839 15.5351 4.94108 15.3836 4.84633 15.2058C4.75158 15.0279 4.70234 14.8294 4.70301 14.6279V5.23295C4.70301 4.44195 5.52901 3.81995 6.58401 3.81995C7.63901 3.81995 8.46501 4.43995 8.46501 5.23095V14.6309C8.46563 14.8322 8.41646 15.0304 8.3219 15.208C8.22733 15.3857 8.0903 15.5371 7.92301 15.6489C7.52691 15.9143 7.06076 16.0556 6.58401 16.0549V16.0529ZM5.64301 14.6289C5.64272 14.6755 5.65399 14.7215 5.6758 14.7627C5.69761 14.8039 5.7293 14.839 5.76801 14.8649C6.00941 15.0267 6.29343 15.113 6.58401 15.113C6.87459 15.113 7.15861 15.0267 7.40001 14.8649C7.4384 14.839 7.46979 14.804 7.49142 14.763C7.51305 14.722 7.52424 14.6763 7.52401 14.6299V6.46195C6.92053 6.70483 6.24649 6.70483 5.64301 6.46195V14.6279V14.6289ZM6.58401 4.76295C6.05401 4.76295 5.64301 5.01595 5.64301 5.23295C5.64301 5.44995 6.05401 5.70295 6.58401 5.70295C7.11401 5.70295 7.52501 5.44995 7.52501 5.23295C7.52501 5.01595 7.11401 4.76295 6.58401 4.76295Z" fill="#43B8FF"/>
<path d="M11.286 16.052C10.8097 16.0519 10.3441 15.9106 9.94804 15.646C9.78028 15.5341 9.64288 15.3824 9.54812 15.2044C9.45336 15.0264 9.4042 14.8276 9.40504 14.626V2.41099C9.40504 1.61999 10.231 0.997986 11.286 0.997986C12.341 0.997986 13.167 1.61799 13.167 2.40899V14.628C13.1677 14.8292 13.1185 15.0275 13.0239 15.2051C12.9294 15.3827 12.7923 15.5342 12.625 15.646C12.2289 15.9113 11.7628 16.0527 11.286 16.052ZM10.345 14.628C10.3448 14.6746 10.3561 14.7205 10.378 14.7617C10.3998 14.8028 10.4314 14.838 10.47 14.864C10.7114 15.0259 10.9954 15.1123 11.286 15.1123C11.5766 15.1123 11.8607 15.0259 12.102 14.864C12.1404 14.838 12.1718 14.803 12.1935 14.762C12.2151 14.721 12.2263 14.6753 12.226 14.629V3.63999C11.6226 3.88328 10.9484 3.88328 10.345 3.63999V14.628ZM11.286 1.94099C10.756 1.94099 10.345 2.19399 10.345 2.41099C10.345 2.62799 10.756 2.88099 11.286 2.88099C11.816 2.88099 12.227 2.62799 12.227 2.41099C12.227 2.19399 11.816 1.94099 11.286 1.94099Z" fill="#43B8FF"/>
</svg>
