<svg width="147" height="206" viewBox="0 0 147 206" fill="none" xmlns="http://www.w3.org/2000/svg">
<path fill-rule="evenodd" clip-rule="evenodd" d="M2.53846 101.277C3.94041 101.277 5.07692 102.41 5.07692 103.809C5.07692 105.207 3.94041 106.34 2.53846 106.34C1.13651 106.34 0 105.207 0 103.809C0 102.41 1.13651 101.277 2.53846 101.277ZM25.3846 103.809C25.3846 102.41 24.2481 101.277 22.8462 101.277C21.4442 101.277 20.3077 102.41 20.3077 103.809C20.3077 105.207 21.4442 106.34 22.8462 106.34C24.2481 106.34 25.3846 105.207 25.3846 103.809ZM25.3846 83.5532C25.3846 82.1548 24.2481 81.0213 22.8462 81.0213C21.4442 81.0213 20.3077 82.1548 20.3077 83.5532C20.3077 84.9515 21.4442 86.0851 22.8462 86.0851C24.2481 86.0851 25.3846 84.9515 25.3846 83.5532ZM22.8462 60.766C24.2481 60.766 25.3846 61.8995 25.3846 63.2979C25.3846 64.6962 24.2481 65.8298 22.8462 65.8298C21.4442 65.8298 20.3077 64.6962 20.3077 63.2979C20.3077 61.8995 21.4442 60.766 22.8462 60.766ZM25.3846 43.0426C25.3846 41.6442 24.2481 40.5106 22.8462 40.5106C21.4442 40.5106 20.3077 41.6442 20.3077 43.0426C20.3077 44.4409 21.4442 45.5745 22.8462 45.5745C24.2481 45.5745 25.3846 44.4409 25.3846 43.0426ZM22.8462 20.2553C24.2481 20.2553 25.3846 21.3889 25.3846 22.7872C25.3846 24.1856 24.2481 25.3192 22.8462 25.3192C21.4442 25.3192 20.3077 24.1856 20.3077 22.7872C20.3077 21.3889 21.4442 20.2553 22.8462 20.2553ZM25.3846 2.53192C25.3846 1.13358 24.2481 0 22.8462 0C21.4442 0 20.3077 1.13358 20.3077 2.53192C20.3077 3.93025 21.4442 5.06383 22.8462 5.06383C24.2481 5.06383 25.3846 3.93025 25.3846 2.53192ZM5.07692 83.5532C5.07692 82.1548 3.94041 81.0213 2.53846 81.0213C1.13651 81.0213 0 82.1548 0 83.5532C0 84.9515 1.13651 86.0851 2.53846 86.0851C3.94041 86.0851 5.07692 84.9515 5.07692 83.5532ZM2.53846 60.766C3.94041 60.766 5.07692 61.8995 5.07692 63.2979C5.07692 64.6962 3.94041 65.8298 2.53846 65.8298C1.13651 65.8298 0 64.6962 0 63.2979C0 61.8995 1.13651 60.766 2.53846 60.766ZM5.07692 43.0426C5.07692 41.6442 3.94041 40.5106 2.53846 40.5106C1.13651 40.5106 0 41.6442 0 43.0426C0 44.4409 1.13651 45.5745 2.53846 45.5745C3.94041 45.5745 5.07692 44.4409 5.07692 43.0426ZM2.53846 20.2553C3.94041 20.2553 5.07692 21.3889 5.07692 22.7872C5.07692 24.1856 3.94041 25.3192 2.53846 25.3192C1.13651 25.3192 0 24.1856 0 22.7872C0 21.3889 1.13651 20.2553 2.53846 20.2553ZM5.07692 2.53192C5.07692 1.13358 3.94041 0 2.53846 0C1.13651 0 0 1.13358 0 2.53192C0 3.93025 1.13651 5.06383 2.53846 5.06383C3.94041 5.06383 5.07692 3.93025 5.07692 2.53192ZM25.3846 235.468C25.3846 234.07 24.2481 232.936 22.8462 232.936C21.4442 232.936 20.3077 234.07 20.3077 235.468C20.3077 236.866 21.4442 238 22.8462 238C24.2481 238 25.3846 236.866 25.3846 235.468ZM25.3846 215.213C25.3846 213.814 24.2481 212.681 22.8462 212.681C21.4442 212.681 20.3077 213.814 20.3077 215.213C20.3077 216.611 21.4442 217.745 22.8462 217.745C24.2481 217.745 25.3846 216.611 25.3846 215.213ZM22.8462 192.426C24.2481 192.426 25.3846 193.559 25.3846 194.957C25.3846 196.356 24.2481 197.489 22.8462 197.489C21.4442 197.489 20.3077 196.356 20.3077 194.957C20.3077 193.559 21.4442 192.426 22.8462 192.426ZM25.3846 174.702C25.3846 173.304 24.2481 172.17 22.8462 172.17C21.4442 172.17 20.3077 173.304 20.3077 174.702C20.3077 176.1 21.4442 177.234 22.8462 177.234C24.2481 177.234 25.3846 176.1 25.3846 174.702ZM22.8462 151.915C24.2481 151.915 25.3846 153.048 25.3846 154.447C25.3846 155.845 24.2481 156.979 22.8462 156.979C21.4442 156.979 20.3077 155.845 20.3077 154.447C20.3077 153.048 21.4442 151.915 22.8462 151.915ZM25.3846 134.191C25.3846 132.793 24.2481 131.66 22.8462 131.66C21.4442 131.66 20.3077 132.793 20.3077 134.191C20.3077 135.59 21.4442 136.723 22.8462 136.723C24.2481 136.723 25.3846 135.59 25.3846 134.191ZM5.07692 235.468C5.07692 234.07 3.94041 232.936 2.53846 232.936C1.13651 232.936 0 234.07 0 235.468C0 236.866 1.13651 238 2.53846 238C3.94041 238 5.07692 236.866 5.07692 235.468ZM43.1538 222.809C44.5558 222.809 45.6923 223.942 45.6923 225.34C45.6923 226.739 44.5558 227.872 43.1538 227.872C41.7519 227.872 40.6154 226.739 40.6154 225.34C40.6154 223.942 41.7519 222.809 43.1538 222.809ZM66 225.34C66 223.942 64.8635 222.809 63.4615 222.809C62.0596 222.809 60.9231 223.942 60.9231 225.34C60.9231 226.739 62.0596 227.872 63.4615 227.872C64.8635 227.872 66 226.739 66 225.34ZM66 205.085C66 203.687 64.8635 202.553 63.4615 202.553C62.0596 202.553 60.9231 203.687 60.9231 205.085C60.9231 206.483 62.0596 207.617 63.4615 207.617C64.8635 207.617 66 206.483 66 205.085ZM63.4615 182.298C64.8635 182.298 66 183.431 66 184.83C66 186.228 64.8635 187.362 63.4615 187.362C62.0596 187.362 60.9231 186.228 60.9231 184.83C60.9231 183.431 62.0596 182.298 63.4615 182.298ZM66 164.574C66 163.176 64.8635 162.043 63.4615 162.043C62.0596 162.043 60.9231 163.176 60.9231 164.574C60.9231 165.973 62.0596 167.106 63.4615 167.106C64.8635 167.106 66 165.973 66 164.574ZM63.4615 141.787C64.8635 141.787 66 142.921 66 144.319C66 145.717 64.8635 146.851 63.4615 146.851C62.0596 146.851 60.9231 145.717 60.9231 144.319C60.9231 142.921 62.0596 141.787 63.4615 141.787ZM66 124.064C66 122.665 64.8635 121.532 63.4615 121.532C62.0596 121.532 60.9231 122.665 60.9231 124.064C60.9231 125.462 62.0596 126.596 63.4615 126.596C64.8635 126.596 66 125.462 66 124.064ZM45.6923 205.085C45.6923 203.687 44.5558 202.553 43.1538 202.553C41.7519 202.553 40.6154 203.687 40.6154 205.085C40.6154 206.483 41.7519 207.617 43.1538 207.617C44.5558 207.617 45.6923 206.483 45.6923 205.085ZM43.1538 182.298C44.5558 182.298 45.6923 183.431 45.6923 184.83C45.6923 186.228 44.5558 187.362 43.1538 187.362C41.7519 187.362 40.6154 186.228 40.6154 184.83C40.6154 183.431 41.7519 182.298 43.1538 182.298ZM45.6923 164.574C45.6923 163.176 44.5558 162.043 43.1538 162.043C41.7519 162.043 40.6154 163.176 40.6154 164.574C40.6154 165.973 41.7519 167.106 43.1538 167.106C44.5558 167.106 45.6923 165.973 45.6923 164.574ZM43.1538 141.787C44.5558 141.787 45.6923 142.921 45.6923 144.319C45.6923 145.717 44.5558 146.851 43.1538 146.851C41.7519 146.851 40.6154 145.717 40.6154 144.319C40.6154 142.921 41.7519 141.787 43.1538 141.787ZM45.6923 124.064C45.6923 122.665 44.5558 121.532 43.1538 121.532C41.7519 121.532 40.6154 122.665 40.6154 124.064C40.6154 125.462 41.7519 126.596 43.1538 126.596C44.5558 126.596 45.6923 125.462 45.6923 124.064ZM5.07692 215.213C5.07692 213.814 3.94041 212.681 2.53846 212.681C1.13651 212.681 0 213.814 0 215.213C0 216.611 1.13651 217.745 2.53846 217.745C3.94041 217.745 5.07692 216.611 5.07692 215.213ZM43.1538 101.277C44.5558 101.277 45.6923 102.41 45.6923 103.809C45.6923 105.207 44.5558 106.34 43.1538 106.34C41.7519 106.34 40.6154 105.207 40.6154 103.809C40.6154 102.41 41.7519 101.277 43.1538 101.277ZM66 103.809C66 102.41 64.8635 101.277 63.4615 101.277C62.0596 101.277 60.9231 102.41 60.9231 103.809C60.9231 105.207 62.0596 106.34 63.4615 106.34C64.8635 106.34 66 105.207 66 103.809ZM66 83.5532C66 82.1548 64.8635 81.0213 63.4615 81.0213C62.0596 81.0213 60.9231 82.1548 60.9231 83.5532C60.9231 84.9515 62.0596 86.0851 63.4615 86.0851C64.8635 86.0851 66 84.9515 66 83.5532ZM63.4615 60.766C64.8635 60.766 66 61.8995 66 63.2979C66 64.6962 64.8635 65.8298 63.4615 65.8298C62.0596 65.8298 60.9231 64.6962 60.9231 63.2979C60.9231 61.8995 62.0596 60.766 63.4615 60.766ZM66 43.0426C66 41.6442 64.8635 40.5106 63.4615 40.5106C62.0596 40.5106 60.9231 41.6442 60.9231 43.0426C60.9231 44.4409 62.0596 45.5745 63.4615 45.5745C64.8635 45.5745 66 44.4409 66 43.0426ZM63.4615 20.2553C64.8635 20.2553 66 21.3889 66 22.7872C66 24.1856 64.8635 25.3192 63.4615 25.3192C62.0596 25.3192 60.9231 24.1856 60.9231 22.7872C60.9231 21.3889 62.0596 20.2553 63.4615 20.2553ZM66 2.53192C66 1.13358 64.8635 0 63.4615 0C62.0596 0 60.9231 1.13358 60.9231 2.53192C60.9231 3.93025 62.0596 5.06383 63.4615 5.06383C64.8635 5.06383 66 3.93025 66 2.53192ZM45.6923 83.5532C45.6923 82.1548 44.5558 81.0213 43.1538 81.0213C41.7519 81.0213 40.6154 82.1548 40.6154 83.5532C40.6154 84.9515 41.7519 86.0851 43.1538 86.0851C44.5558 86.0851 45.6923 84.9515 45.6923 83.5532ZM43.1538 60.766C44.5558 60.766 45.6923 61.8995 45.6923 63.2979C45.6923 64.6962 44.5558 65.8298 43.1538 65.8298C41.7519 65.8298 40.6154 64.6962 40.6154 63.2979C40.6154 61.8995 41.7519 60.766 43.1538 60.766ZM45.6923 43.0426C45.6923 41.6442 44.5558 40.5106 43.1538 40.5106C41.7519 40.5106 40.6154 41.6442 40.6154 43.0426C40.6154 44.4409 41.7519 45.5745 43.1538 45.5745C44.5558 45.5745 45.6923 44.4409 45.6923 43.0426ZM43.1538 20.2553C44.5558 20.2553 45.6923 21.3889 45.6923 22.7872C45.6923 24.1856 44.5558 25.3192 43.1538 25.3192C41.7519 25.3192 40.6154 24.1856 40.6154 22.7872C40.6154 21.3889 41.7519 20.2553 43.1538 20.2553ZM45.6923 2.53192C45.6923 1.13358 44.5558 0 43.1538 0C41.7519 0 40.6154 1.13358 40.6154 2.53192C40.6154 3.93025 41.7519 5.06383 43.1538 5.06383C44.5558 5.06383 45.6923 3.93025 45.6923 2.53192ZM5.07692 194.957C5.07692 193.559 3.94041 192.426 2.53846 192.426C1.13651 192.426 0 193.559 0 194.957C0 196.356 1.13651 197.489 2.53846 197.489C3.94041 197.489 5.07692 196.356 5.07692 194.957ZM2.53846 172.17C3.94041 172.17 5.07692 173.304 5.07692 174.702C5.07692 176.1 3.94041 177.234 2.53846 177.234C1.13651 177.234 0 176.1 0 174.702C0 173.304 1.13651 172.17 2.53846 172.17ZM5.07692 154.447C5.07692 153.048 3.94041 151.915 2.53846 151.915C1.13651 151.915 0 153.048 0 154.447C0 155.845 1.13651 156.979 2.53846 156.979C3.94041 156.979 5.07692 155.845 5.07692 154.447ZM2.53846 131.66C3.94041 131.66 5.07692 132.793 5.07692 134.191C5.07692 135.59 3.94041 136.723 2.53846 136.723C1.13651 136.723 0 135.59 0 134.191C0 132.793 1.13651 131.66 2.53846 131.66Z" fill="#3D34D2"/>
<path fill-rule="evenodd" clip-rule="evenodd" d="M83.5385 101.277C84.9404 101.277 86.0769 102.41 86.0769 103.809C86.0769 105.207 84.9404 106.34 83.5385 106.34C82.1365 106.34 81 105.207 81 103.809C81 102.41 82.1365 101.277 83.5385 101.277ZM106.385 103.809C106.385 102.41 105.248 101.277 103.846 101.277C102.444 101.277 101.308 102.41 101.308 103.809C101.308 105.207 102.444 106.34 103.846 106.34C105.248 106.34 106.385 105.207 106.385 103.809ZM106.385 83.5532C106.385 82.1548 105.248 81.0213 103.846 81.0213C102.444 81.0213 101.308 82.1548 101.308 83.5532C101.308 84.9515 102.444 86.0851 103.846 86.0851C105.248 86.0851 106.385 84.9515 106.385 83.5532ZM103.846 60.766C105.248 60.766 106.385 61.8995 106.385 63.2979C106.385 64.6962 105.248 65.8298 103.846 65.8298C102.444 65.8298 101.308 64.6962 101.308 63.2979C101.308 61.8995 102.444 60.766 103.846 60.766ZM106.385 43.0426C106.385 41.6442 105.248 40.5106 103.846 40.5106C102.444 40.5106 101.308 41.6442 101.308 43.0426C101.308 44.4409 102.444 45.5745 103.846 45.5745C105.248 45.5745 106.385 44.4409 106.385 43.0426ZM103.846 20.2553C105.248 20.2553 106.385 21.3889 106.385 22.7872C106.385 24.1856 105.248 25.3192 103.846 25.3192C102.444 25.3192 101.308 24.1856 101.308 22.7872C101.308 21.3889 102.444 20.2553 103.846 20.2553ZM106.385 2.53192C106.385 1.13358 105.248 0 103.846 0C102.444 0 101.308 1.13358 101.308 2.53192C101.308 3.93025 102.444 5.06383 103.846 5.06383C105.248 5.06383 106.385 3.93025 106.385 2.53192ZM86.0769 83.5532C86.0769 82.1548 84.9404 81.0213 83.5385 81.0213C82.1365 81.0213 81 82.1548 81 83.5532C81 84.9515 82.1365 86.0851 83.5385 86.0851C84.9404 86.0851 86.0769 84.9515 86.0769 83.5532ZM83.5385 60.766C84.9404 60.766 86.0769 61.8995 86.0769 63.2979C86.0769 64.6962 84.9404 65.8298 83.5385 65.8298C82.1365 65.8298 81 64.6962 81 63.2979C81 61.8995 82.1365 60.766 83.5385 60.766ZM86.0769 43.0426C86.0769 41.6442 84.9404 40.5106 83.5385 40.5106C82.1365 40.5106 81 41.6442 81 43.0426C81 44.4409 82.1365 45.5745 83.5385 45.5745C84.9404 45.5745 86.0769 44.4409 86.0769 43.0426ZM83.5385 20.2553C84.9404 20.2553 86.0769 21.3889 86.0769 22.7872C86.0769 24.1856 84.9404 25.3192 83.5385 25.3192C82.1365 25.3192 81 24.1856 81 22.7872C81 21.3889 82.1365 20.2553 83.5385 20.2553ZM86.0769 2.53192C86.0769 1.13358 84.9404 0 83.5385 0C82.1365 0 81 1.13358 81 2.53192C81 3.93025 82.1365 5.06383 83.5385 5.06383C84.9404 5.06383 86.0769 3.93025 86.0769 2.53192ZM106.385 235.468C106.385 234.07 105.248 232.936 103.846 232.936C102.444 232.936 101.308 234.07 101.308 235.468C101.308 236.866 102.444 238 103.846 238C105.248 238 106.385 236.866 106.385 235.468ZM106.385 215.213C106.385 213.814 105.248 212.681 103.846 212.681C102.444 212.681 101.308 213.814 101.308 215.213C101.308 216.611 102.444 217.745 103.846 217.745C105.248 217.745 106.385 216.611 106.385 215.213ZM103.846 192.426C105.248 192.426 106.385 193.559 106.385 194.957C106.385 196.356 105.248 197.489 103.846 197.489C102.444 197.489 101.308 196.356 101.308 194.957C101.308 193.559 102.444 192.426 103.846 192.426ZM106.385 174.702C106.385 173.304 105.248 172.17 103.846 172.17C102.444 172.17 101.308 173.304 101.308 174.702C101.308 176.1 102.444 177.234 103.846 177.234C105.248 177.234 106.385 176.1 106.385 174.702ZM103.846 151.915C105.248 151.915 106.385 153.048 106.385 154.447C106.385 155.845 105.248 156.979 103.846 156.979C102.444 156.979 101.308 155.845 101.308 154.447C101.308 153.048 102.444 151.915 103.846 151.915ZM106.385 134.191C106.385 132.793 105.248 131.66 103.846 131.66C102.444 131.66 101.308 132.793 101.308 134.191C101.308 135.59 102.444 136.723 103.846 136.723C105.248 136.723 106.385 135.59 106.385 134.191ZM86.0769 235.468C86.0769 234.07 84.9404 232.936 83.5385 232.936C82.1365 232.936 81 234.07 81 235.468C81 236.866 82.1365 238 83.5385 238C84.9404 238 86.0769 236.866 86.0769 235.468ZM124.154 222.809C125.556 222.809 126.692 223.942 126.692 225.34C126.692 226.739 125.556 227.872 124.154 227.872C122.752 227.872 121.615 226.739 121.615 225.34C121.615 223.942 122.752 222.809 124.154 222.809ZM147 225.34C147 223.942 145.863 222.809 144.462 222.809C143.06 222.809 141.923 223.942 141.923 225.34C141.923 226.739 143.06 227.872 144.462 227.872C145.863 227.872 147 226.739 147 225.34ZM147 205.085C147 203.687 145.863 202.553 144.462 202.553C143.06 202.553 141.923 203.687 141.923 205.085C141.923 206.483 143.06 207.617 144.462 207.617C145.863 207.617 147 206.483 147 205.085ZM144.462 182.298C145.863 182.298 147 183.431 147 184.83C147 186.228 145.863 187.362 144.462 187.362C143.06 187.362 141.923 186.228 141.923 184.83C141.923 183.431 143.06 182.298 144.462 182.298ZM147 164.574C147 163.176 145.863 162.043 144.462 162.043C143.06 162.043 141.923 163.176 141.923 164.574C141.923 165.973 143.06 167.106 144.462 167.106C145.863 167.106 147 165.973 147 164.574ZM144.462 141.787C145.863 141.787 147 142.921 147 144.319C147 145.717 145.863 146.851 144.462 146.851C143.06 146.851 141.923 145.717 141.923 144.319C141.923 142.921 143.06 141.787 144.462 141.787ZM147 124.064C147 122.665 145.863 121.532 144.462 121.532C143.06 121.532 141.923 122.665 141.923 124.064C141.923 125.462 143.06 126.596 144.462 126.596C145.863 126.596 147 125.462 147 124.064ZM126.692 205.085C126.692 203.687 125.556 202.553 124.154 202.553C122.752 202.553 121.615 203.687 121.615 205.085C121.615 206.483 122.752 207.617 124.154 207.617C125.556 207.617 126.692 206.483 126.692 205.085ZM124.154 182.298C125.556 182.298 126.692 183.431 126.692 184.83C126.692 186.228 125.556 187.362 124.154 187.362C122.752 187.362 121.615 186.228 121.615 184.83C121.615 183.431 122.752 182.298 124.154 182.298ZM126.692 164.574C126.692 163.176 125.556 162.043 124.154 162.043C122.752 162.043 121.615 163.176 121.615 164.574C121.615 165.973 122.752 167.106 124.154 167.106C125.556 167.106 126.692 165.973 126.692 164.574ZM124.154 141.787C125.556 141.787 126.692 142.921 126.692 144.319C126.692 145.717 125.556 146.851 124.154 146.851C122.752 146.851 121.615 145.717 121.615 144.319C121.615 142.921 122.752 141.787 124.154 141.787ZM126.692 124.064C126.692 122.665 125.556 121.532 124.154 121.532C122.752 121.532 121.615 122.665 121.615 124.064C121.615 125.462 122.752 126.596 124.154 126.596C125.556 126.596 126.692 125.462 126.692 124.064ZM86.0769 215.213C86.0769 213.814 84.9404 212.681 83.5385 212.681C82.1365 212.681 81 213.814 81 215.213C81 216.611 82.1365 217.745 83.5385 217.745C84.9404 217.745 86.0769 216.611 86.0769 215.213ZM124.154 101.277C125.556 101.277 126.692 102.41 126.692 103.809C126.692 105.207 125.556 106.34 124.154 106.34C122.752 106.34 121.615 105.207 121.615 103.809C121.615 102.41 122.752 101.277 124.154 101.277ZM147 103.809C147 102.41 145.863 101.277 144.462 101.277C143.06 101.277 141.923 102.41 141.923 103.809C141.923 105.207 143.06 106.34 144.462 106.34C145.863 106.34 147 105.207 147 103.809ZM147 83.5532C147 82.1548 145.863 81.0213 144.462 81.0213C143.06 81.0213 141.923 82.1548 141.923 83.5532C141.923 84.9515 143.06 86.0851 144.462 86.0851C145.863 86.0851 147 84.9515 147 83.5532ZM144.462 60.766C145.863 60.766 147 61.8995 147 63.2979C147 64.6962 145.863 65.8298 144.462 65.8298C143.06 65.8298 141.923 64.6962 141.923 63.2979C141.923 61.8995 143.06 60.766 144.462 60.766ZM147 43.0426C147 41.6442 145.863 40.5106 144.462 40.5106C143.06 40.5106 141.923 41.6442 141.923 43.0426C141.923 44.4409 143.06 45.5745 144.462 45.5745C145.863 45.5745 147 44.4409 147 43.0426ZM144.462 20.2553C145.863 20.2553 147 21.3889 147 22.7872C147 24.1856 145.863 25.3192 144.462 25.3192C143.06 25.3192 141.923 24.1856 141.923 22.7872C141.923 21.3889 143.06 20.2553 144.462 20.2553ZM147 2.53192C147 1.13358 145.863 0 144.462 0C143.06 0 141.923 1.13358 141.923 2.53192C141.923 3.93025 143.06 5.06383 144.462 5.06383C145.863 5.06383 147 3.93025 147 2.53192ZM126.692 83.5532C126.692 82.1548 125.556 81.0213 124.154 81.0213C122.752 81.0213 121.615 82.1548 121.615 83.5532C121.615 84.9515 122.752 86.0851 124.154 86.0851C125.556 86.0851 126.692 84.9515 126.692 83.5532ZM124.154 60.766C125.556 60.766 126.692 61.8995 126.692 63.2979C126.692 64.6962 125.556 65.8298 124.154 65.8298C122.752 65.8298 121.615 64.6962 121.615 63.2979C121.615 61.8995 122.752 60.766 124.154 60.766ZM126.692 43.0426C126.692 41.6442 125.556 40.5106 124.154 40.5106C122.752 40.5106 121.615 41.6442 121.615 43.0426C121.615 44.4409 122.752 45.5745 124.154 45.5745C125.556 45.5745 126.692 44.4409 126.692 43.0426ZM124.154 20.2553C125.556 20.2553 126.692 21.3889 126.692 22.7872C126.692 24.1856 125.556 25.3192 124.154 25.3192C122.752 25.3192 121.615 24.1856 121.615 22.7872C121.615 21.3889 122.752 20.2553 124.154 20.2553ZM126.692 2.53192C126.692 1.13358 125.556 0 124.154 0C122.752 0 121.615 1.13358 121.615 2.53192C121.615 3.93025 122.752 5.06383 124.154 5.06383C125.556 5.06383 126.692 3.93025 126.692 2.53192ZM86.0769 194.957C86.0769 193.559 84.9404 192.426 83.5385 192.426C82.1365 192.426 81 193.559 81 194.957C81 196.356 82.1365 197.489 83.5385 197.489C84.9404 197.489 86.0769 196.356 86.0769 194.957ZM83.5385 172.17C84.9404 172.17 86.0769 173.304 86.0769 174.702C86.0769 176.1 84.9404 177.234 83.5385 177.234C82.1365 177.234 81 176.1 81 174.702C81 173.304 82.1365 172.17 83.5385 172.17ZM86.0769 154.447C86.0769 153.048 84.9404 151.915 83.5385 151.915C82.1365 151.915 81 153.048 81 154.447C81 155.845 82.1365 156.979 83.5385 156.979C84.9404 156.979 86.0769 155.845 86.0769 154.447ZM83.5385 131.66C84.9404 131.66 86.0769 132.793 86.0769 134.191C86.0769 135.59 84.9404 136.723 83.5385 136.723C82.1365 136.723 81 135.59 81 134.191C81 132.793 82.1365 131.66 83.5385 131.66Z" fill="#3D34D2"/>
</svg>
