<svg width="14" height="14" viewBox="0 0 14 14" fill="none" xmlns="http://www.w3.org/2000/svg">
<path d="M6.417 7.539C6.41713 7.61031 6.40322 7.68094 6.37605 7.74687C6.34888 7.8128 6.309 7.87274 6.25867 7.92325C6.20834 7.97377 6.14855 8.01387 6.08272 8.04128C6.01689 8.06869 5.94631 8.08287 5.875 8.083H1.542C1.47069 8.08287 1.40011 8.06869 1.33428 8.04128C1.26845 8.01387 1.20866 7.97377 1.15833 7.92325C1.10801 7.87274 1.06812 7.8128 1.04095 7.74687C1.01378 7.68094 0.999869 7.61031 1 7.539V1.544C0.999869 1.47269 1.01378 1.40206 1.04095 1.33613C1.06812 1.2702 1.10801 1.21026 1.15833 1.15975C1.20866 1.10923 1.26845 1.06913 1.33428 1.04172C1.40011 1.01431 1.47069 1.00013 1.542 1L5.876 1.007C6.01984 1.00753 6.15759 1.06511 6.25902 1.1671C6.36045 1.26909 6.41727 1.40716 6.417 1.551V7.539Z" stroke="#B4E7FF" stroke-linecap="round" stroke-linejoin="round"/>
<path d="M13.4981 4.21601C13.4975 4.28667 13.4831 4.35652 13.4556 4.4216C13.4281 4.48667 13.388 4.54568 13.3377 4.59527C13.2873 4.64486 13.2277 4.68405 13.1622 4.7106C13.0968 4.73715 13.0267 4.75054 12.9561 4.75002H8.62305C8.5524 4.75054 8.48234 4.73715 8.41686 4.7106C8.35139 4.68405 8.29178 4.64486 8.24146 4.59527C8.19113 4.54568 8.15106 4.48667 8.12353 4.4216C8.09601 4.35652 8.08158 4.28667 8.08105 4.21601V1.54401C8.08211 1.4015 8.13967 1.26523 8.2411 1.16511C8.34253 1.065 8.47954 1.00922 8.62205 1.01002L12.9551 1.00002C13.0978 0.998949 13.2352 1.05458 13.337 1.1547C13.4388 1.25482 13.4967 1.39124 13.4981 1.53401V4.21601Z" stroke="#B4E7FF" stroke-linecap="round" stroke-linejoin="round"/>
<path d="M6.417 12.964C6.41661 13.0349 6.40224 13.105 6.37473 13.1703C6.34722 13.2356 6.30709 13.2948 6.25666 13.3446C6.20622 13.3944 6.14646 13.4338 6.0808 13.4604C6.01514 13.4871 5.94487 13.5005 5.874 13.5L1.541 13.493C1.47026 13.4934 1.40015 13.4799 1.33466 13.4531C1.26917 13.4264 1.20959 13.387 1.15934 13.3372C1.10909 13.2874 1.06915 13.2282 1.04181 13.163C1.01447 13.0977 1.00026 13.0277 1 12.957V10.286C1.00026 10.2152 1.0145 10.1451 1.04191 10.0798C1.06931 10.0145 1.10934 9.95526 1.1597 9.90546C1.21005 9.85567 1.26974 9.8163 1.33535 9.78962C1.40095 9.76295 1.47118 9.74949 1.542 9.75001H5.875C5.94578 9.74962 6.01595 9.76317 6.0815 9.78989C6.14704 9.81662 6.20668 9.85599 6.25701 9.90576C6.30734 9.95553 6.34737 10.0147 6.37483 10.08C6.40228 10.1452 6.41661 10.2152 6.417 10.286V12.964Z" stroke="#B4E7FF" stroke-linecap="round" stroke-linejoin="round"/>
<path d="M8.62306 13.5C8.55167 13.4999 8.481 13.4857 8.41511 13.4582C8.34921 13.4307 8.28938 13.3905 8.23904 13.3399C8.18869 13.2893 8.14883 13.2292 8.12172 13.1632C8.09461 13.0971 8.0808 13.0264 8.08106 12.955V6.96199C8.0808 6.8906 8.09461 6.81986 8.12172 6.75381C8.14883 6.68777 8.18869 6.62772 8.23904 6.57709C8.28938 6.52647 8.34921 6.48628 8.41511 6.4588C8.481 6.43133 8.55167 6.41712 8.62306 6.41699H12.9561C13.0275 6.41712 13.0981 6.43133 13.164 6.4588C13.2299 6.48628 13.2897 6.52647 13.3401 6.57709C13.3904 6.62772 13.4303 6.68777 13.4574 6.75381C13.4845 6.81986 13.4983 6.8906 13.4981 6.96199V12.948C13.4983 13.0919 13.4415 13.2301 13.3401 13.3322C13.2387 13.4344 13.101 13.4922 12.9571 13.493L8.62306 13.5Z" stroke="#B4E7FF" stroke-linecap="round" stroke-linejoin="round"/>
</svg>
