<svg width="13" height="14" viewBox="0 0 13 14" fill="none" xmlns="http://www.w3.org/2000/svg">
<path d="M7.335 12.5H1.735C1.53979 12.4992 1.35285 12.4211 1.21509 12.2828C1.07734 12.1445 0.999998 11.9572 1 11.762V2.17001C1 1.97428 1.07775 1.78656 1.21616 1.64816C1.35456 1.50976 1.54227 1.43201 1.738 1.43201H11.33C11.5257 1.43201 11.7134 1.50976 11.8518 1.64816C11.9902 1.78656 12.068 1.97428 12.068 2.17001V7.77001C12.0678 7.96542 11.9901 8.15279 11.852 8.29101L7.852 12.291C7.71378 12.4291 7.52641 12.5068 7.331 12.507L7.335 12.5Z" stroke="#B4E7FF" stroke-linecap="round" stroke-linejoin="round"/>
<path d="M7.64099 12.434V8.811C7.64099 8.61527 7.71874 8.42755 7.85715 8.28915C7.99555 8.15075 8.18326 8.073 8.37899 8.073H12.002" stroke="#B4E7FF" stroke-linecap="round" stroke-linejoin="round"/>
<path d="M3.95099 4.38306H9.85099" stroke="#B4E7FF" stroke-linecap="round" stroke-linejoin="round"/>
<path d="M3.95099 6.59705H6.53399" stroke="#B4E7FF" stroke-linecap="round" stroke-linejoin="round"/>
</svg>
