<svg width="74" height="227" viewBox="0 0 74 227" fill="none" xmlns="http://www.w3.org/2000/svg">
<path fill-rule="evenodd" clip-rule="evenodd" d="M10.5385 96.2242C11.9404 96.2242 13.0769 97.3013 13.0769 98.6298C13.0769 99.9584 11.9404 101.035 10.5385 101.035C9.13651 101.035 8 99.9584 8 98.6298C8 97.3013 9.13651 96.2242 10.5385 96.2242ZM33.3846 98.6298C33.3846 97.3013 32.2481 96.2242 30.8462 96.2242C29.4442 96.2242 28.3077 97.3013 28.3077 98.6298C28.3077 99.9584 29.4442 101.035 30.8462 101.035C32.2481 101.035 33.3846 99.9584 33.3846 98.6298ZM33.3846 79.385C33.3846 78.0564 32.2481 76.9794 30.8462 76.9794C29.4442 76.9794 28.3077 78.0564 28.3077 79.385C28.3077 80.7136 29.4442 81.7906 30.8462 81.7906C32.2481 81.7906 33.3846 80.7136 33.3846 79.385ZM30.8462 57.7344C32.2481 57.7344 33.3846 58.8115 33.3846 60.1401C33.3846 61.4687 32.2481 62.5457 30.8462 62.5457C29.4442 62.5457 28.3077 61.4687 28.3077 60.1401C28.3077 58.8115 29.4442 57.7344 30.8462 57.7344ZM33.3846 40.8953C33.3846 39.5667 32.2481 38.4896 30.8462 38.4896C29.4442 38.4896 28.3077 39.5667 28.3077 40.8953C28.3077 42.2239 29.4442 43.3009 30.8462 43.3009C32.2481 43.3009 33.3846 42.2239 33.3846 40.8953ZM30.8462 19.2448C32.2481 19.2448 33.3846 20.3218 33.3846 21.6504C33.3846 22.979 32.2481 24.056 30.8462 24.056C29.4442 24.056 28.3077 22.979 28.3077 21.6504C28.3077 20.3218 29.4442 19.2448 30.8462 19.2448ZM33.3846 2.40561C33.3846 1.07703 32.2481 0 30.8462 0C29.4442 0 28.3077 1.07703 28.3077 2.40561C28.3077 3.73419 29.4442 4.81122 30.8462 4.81122C32.2481 4.81122 33.3846 3.73419 33.3846 2.40561ZM13.0769 79.385C13.0769 78.0564 11.9404 76.9794 10.5385 76.9794C9.13651 76.9794 8 78.0564 8 79.385C8 80.7136 9.13651 81.7906 10.5385 81.7906C11.9404 81.7906 13.0769 80.7136 13.0769 79.385ZM10.5385 57.7344C11.9404 57.7344 13.0769 58.8115 13.0769 60.1401C13.0769 61.4687 11.9404 62.5457 10.5385 62.5457C9.13651 62.5457 8 61.4687 8 60.1401C8 58.8115 9.13651 57.7344 10.5385 57.7344ZM13.0769 40.8953C13.0769 39.5667 11.9404 38.4896 10.5385 38.4896C9.13651 38.4896 8 39.5667 8 40.8953C8 42.2239 9.13651 43.3009 10.5385 43.3009C11.9404 43.3009 13.0769 42.2239 13.0769 40.8953ZM10.5385 19.2448C11.9404 19.2448 13.0769 20.3218 13.0769 21.6504C13.0769 22.979 11.9404 24.056 10.5385 24.056C9.13651 24.056 8 22.979 8 21.6504C8 20.3218 9.13651 19.2448 10.5385 19.2448ZM13.0769 2.40561C13.0769 1.07703 11.9404 0 10.5385 0C9.13651 0 8 1.07703 8 2.40561C8 3.73419 9.13651 4.81122 10.5385 4.81122C11.9404 4.81122 13.0769 3.73419 13.0769 2.40561ZM33.3846 223.721C33.3846 222.393 32.2481 221.316 30.8462 221.316C29.4442 221.316 28.3077 222.393 28.3077 223.721C28.3077 225.05 29.4442 226.127 30.8462 226.127C32.2481 226.127 33.3846 225.05 33.3846 223.721ZM33.3846 204.477C33.3846 203.148 32.2481 202.071 30.8462 202.071C29.4442 202.071 28.3077 203.148 28.3077 204.477C28.3077 205.805 29.4442 206.882 30.8462 206.882C32.2481 206.882 33.3846 205.805 33.3846 204.477ZM30.8462 182.826C32.2481 182.826 33.3846 183.903 33.3846 185.232C33.3846 186.56 32.2481 187.637 30.8462 187.637C29.4442 187.637 28.3077 186.56 28.3077 185.232C28.3077 183.903 29.4442 182.826 30.8462 182.826ZM33.3846 165.987C33.3846 164.658 32.2481 163.581 30.8462 163.581C29.4442 163.581 28.3077 164.658 28.3077 165.987C28.3077 167.315 29.4442 168.392 30.8462 168.392C32.2481 168.392 33.3846 167.315 33.3846 165.987ZM30.8462 144.336C32.2481 144.336 33.3846 145.413 33.3846 146.742C33.3846 148.071 32.2481 149.148 30.8462 149.148C29.4442 149.148 28.3077 148.071 28.3077 146.742C28.3077 145.413 29.4442 144.336 30.8462 144.336ZM33.3846 127.497C33.3846 126.169 32.2481 125.091 30.8462 125.091C29.4442 125.091 28.3077 126.169 28.3077 127.497C28.3077 128.826 29.4442 129.903 30.8462 129.903C32.2481 129.903 33.3846 128.826 33.3846 127.497ZM13.0769 223.721C13.0769 222.393 11.9404 221.316 10.5385 221.316C9.13651 221.316 8 222.393 8 223.721C8 225.05 9.13651 226.127 10.5385 226.127C11.9404 226.127 13.0769 225.05 13.0769 223.721ZM51.1538 211.693C52.5558 211.693 53.6923 212.77 53.6923 214.099C53.6923 215.428 52.5558 216.505 51.1538 216.505C49.7519 216.505 48.6154 215.428 48.6154 214.099C48.6154 212.77 49.7519 211.693 51.1538 211.693ZM74 194.854C74 193.525 72.8635 192.448 71.4615 192.448C70.0596 192.448 68.9231 193.525 68.9231 194.854C68.9231 196.183 70.0596 197.26 71.4615 197.26C72.8635 197.26 74 196.183 74 194.854ZM74 214.099C74 212.77 72.8635 211.693 71.4615 211.693C70.0596 211.693 68.9231 212.77 68.9231 214.099C68.9231 215.428 70.0596 216.505 71.4615 216.505C72.8635 216.505 74 215.428 74 214.099ZM71.4615 173.204C72.8635 173.204 74 174.281 74 175.609C74 176.938 72.8635 178.015 71.4615 178.015C70.0596 178.015 68.9231 176.938 68.9231 175.609C68.9231 174.281 70.0596 173.204 71.4615 173.204ZM74 156.364C74 155.036 72.8635 153.959 71.4615 153.959C70.0596 153.959 68.9231 155.036 68.9231 156.364C68.9231 157.693 70.0596 158.77 71.4615 158.77C72.8635 158.77 74 157.693 74 156.364ZM71.4615 134.714C72.8635 134.714 74 135.791 74 137.12C74 138.448 72.8635 139.525 71.4615 139.525C70.0596 139.525 68.9231 138.448 68.9231 137.12C68.9231 135.791 70.0596 134.714 71.4615 134.714ZM74 117.875C74 116.546 72.8635 115.469 71.4615 115.469C70.0596 115.469 68.9231 116.546 68.9231 117.875C68.9231 119.203 70.0596 120.28 71.4615 120.28C72.8635 120.28 74 119.203 74 117.875ZM53.6923 194.854C53.6923 193.525 52.5558 192.448 51.1538 192.448C49.7519 192.448 48.6154 193.525 48.6154 194.854C48.6154 196.183 49.7519 197.26 51.1538 197.26C52.5558 197.26 53.6923 196.183 53.6923 194.854ZM51.1538 173.204C52.5558 173.204 53.6923 174.281 53.6923 175.609C53.6923 176.938 52.5558 178.015 51.1538 178.015C49.7519 178.015 48.6154 176.938 48.6154 175.609C48.6154 174.281 49.7519 173.204 51.1538 173.204ZM53.6923 156.364C53.6923 155.036 52.5558 153.959 51.1538 153.959C49.7519 153.959 48.6154 155.036 48.6154 156.364C48.6154 157.693 49.7519 158.77 51.1538 158.77C52.5558 158.77 53.6923 157.693 53.6923 156.364ZM51.1538 134.714C52.5558 134.714 53.6923 135.791 53.6923 137.12C53.6923 138.448 52.5558 139.525 51.1538 139.525C49.7519 139.525 48.6154 138.448 48.6154 137.12C48.6154 135.791 49.7519 134.714 51.1538 134.714ZM53.6923 117.875C53.6923 116.546 52.5558 115.469 51.1538 115.469C49.7519 115.469 48.6154 116.546 48.6154 117.875C48.6154 119.203 49.7519 120.28 51.1538 120.28C52.5558 120.28 53.6923 119.203 53.6923 117.875ZM13.0769 204.477C13.0769 203.148 11.9404 202.071 10.5385 202.071C9.13651 202.071 8 203.148 8 204.477C8 205.805 9.13651 206.882 10.5385 206.882C11.9404 206.882 13.0769 205.805 13.0769 204.477ZM51.1538 96.2242C52.5558 96.2242 53.6923 97.3013 53.6923 98.6298C53.6923 99.9584 52.5558 101.035 51.1538 101.035C49.7519 101.035 48.6154 99.9584 48.6154 98.6298C48.6154 97.3013 49.7519 96.2242 51.1538 96.2242ZM74 79.385C74 78.0564 72.8635 76.9794 71.4615 76.9794C70.0596 76.9794 68.9231 78.0564 68.9231 79.385C68.9231 80.7136 70.0596 81.7906 71.4615 81.7906C72.8635 81.7906 74 80.7136 74 79.385ZM74 98.6298C74 97.3013 72.8635 96.2242 71.4615 96.2242C70.0596 96.2242 68.9231 97.3013 68.9231 98.6298C68.9231 99.9584 70.0596 101.035 71.4615 101.035C72.8635 101.035 74 99.9584 74 98.6298ZM71.4615 57.7344C72.8635 57.7344 74 58.8115 74 60.1401C74 61.4687 72.8635 62.5457 71.4615 62.5457C70.0596 62.5457 68.9231 61.4687 68.9231 60.1401C68.9231 58.8115 70.0596 57.7344 71.4615 57.7344ZM74 40.8953C74 39.5667 72.8635 38.4896 71.4615 38.4896C70.0596 38.4896 68.9231 39.5667 68.9231 40.8953C68.9231 42.2239 70.0596 43.3009 71.4615 43.3009C72.8635 43.3009 74 42.2239 74 40.8953ZM71.4615 19.2448C72.8635 19.2448 74 20.3218 74 21.6504C74 22.979 72.8635 24.056 71.4615 24.056C70.0596 24.056 68.9231 22.979 68.9231 21.6504C68.9231 20.3218 70.0596 19.2448 71.4615 19.2448ZM74 2.40561C74 1.07703 72.8635 0 71.4615 0C70.0596 0 68.9231 1.07703 68.9231 2.40561C68.9231 3.73419 70.0596 4.81122 71.4615 4.81122C72.8635 4.81122 74 3.73419 74 2.40561ZM53.6923 79.385C53.6923 78.0564 52.5558 76.9794 51.1538 76.9794C49.7519 76.9794 48.6154 78.0564 48.6154 79.385C48.6154 80.7136 49.7519 81.7906 51.1538 81.7906C52.5558 81.7906 53.6923 80.7136 53.6923 79.385ZM51.1538 57.7344C52.5558 57.7344 53.6923 58.8115 53.6923 60.1401C53.6923 61.4687 52.5558 62.5457 51.1538 62.5457C49.7519 62.5457 48.6154 61.4687 48.6154 60.1401C48.6154 58.8115 49.7519 57.7344 51.1538 57.7344ZM53.6923 40.8953C53.6923 39.5667 52.5558 38.4896 51.1538 38.4896C49.7519 38.4896 48.6154 39.5667 48.6154 40.8953C48.6154 42.2239 49.7519 43.3009 51.1538 43.3009C52.5558 43.3009 53.6923 42.2239 53.6923 40.8953ZM51.1538 19.2448C52.5558 19.2448 53.6923 20.3218 53.6923 21.6504C53.6923 22.979 52.5558 24.056 51.1538 24.056C49.7519 24.056 48.6154 22.979 48.6154 21.6504C48.6154 20.3218 49.7519 19.2448 51.1538 19.2448ZM53.6923 2.40561C53.6923 1.07703 52.5558 0 51.1538 0C49.7519 0 48.6154 1.07703 48.6154 2.40561C48.6154 3.73419 49.7519 4.81122 51.1538 4.81122C52.5558 4.81122 53.6923 3.73419 53.6923 2.40561ZM13.0769 185.232C13.0769 183.903 11.9404 182.826 10.5385 182.826C9.13651 182.826 8 183.903 8 185.232C8 186.56 9.13651 187.637 10.5385 187.637C11.9404 187.637 13.0769 186.56 13.0769 185.232ZM10.5385 163.581C11.9404 163.581 13.0769 164.658 13.0769 165.987C13.0769 167.315 11.9404 168.392 10.5385 168.392C9.13651 168.392 8 167.315 8 165.987C8 164.658 9.13651 163.581 10.5385 163.581ZM13.0769 146.742C13.0769 145.413 11.9404 144.336 10.5385 144.336C9.13651 144.336 8 145.413 8 146.742C8 148.071 9.13651 149.148 10.5385 149.148C11.9404 149.148 13.0769 148.071 13.0769 146.742ZM10.5385 125.091C11.9404 125.091 13.0769 126.169 13.0769 127.497C13.0769 128.826 11.9404 129.903 10.5385 129.903C9.13651 129.903 8 128.826 8 127.497C8 126.169 9.13651 125.091 10.5385 125.091Z" fill="#3D34D2"/>
</svg>
