<svg width="13" height="14" viewBox="0 0 13 14" fill="none" xmlns="http://www.w3.org/2000/svg">
<path d="M5.89103 12.9991C5.83292 12.999 5.77555 12.9861 5.72305 12.9612C5.67054 12.9363 5.62421 12.9001 5.58739 12.8551C5.55057 12.8101 5.52418 12.7576 5.51011 12.7012C5.49604 12.6448 5.49465 12.586 5.50603 12.5291L5.89903 10.5651C5.91421 10.4893 5.95143 10.4197 6.00603 10.3651L10.006 6.36506C10.2872 6.08447 10.6683 5.92688 11.0655 5.92688C11.4628 5.92688 11.8438 6.08447 12.125 6.36506C12.399 6.64843 12.5537 7.02615 12.5572 7.42027C12.5608 7.81439 12.4129 8.19483 12.144 8.48306L12.133 8.49506L8.13303 12.4951C8.07844 12.5498 8.00883 12.587 7.93303 12.6021L5.97003 12.9951C5.9444 13.0006 5.91825 13.0033 5.89203 13.0031L5.89103 12.9991ZM6.39103 12.1061L7.66003 11.8521L11.568 7.94406C11.6951 7.80479 11.7655 7.62308 11.7655 7.43456C11.7655 7.24605 11.6951 7.06433 11.568 6.92506L11.557 6.91306C11.4249 6.78362 11.247 6.71172 11.062 6.71306C10.969 6.71336 10.877 6.73197 10.7912 6.76783C10.7055 6.80369 10.6276 6.8561 10.562 6.92206L6.65003 10.8341L6.39603 12.1031L6.39103 12.1061Z" fill="#B4E7FF"/>
<path d="M1.17803 11.432C1.02303 11.432 0.869552 11.4014 0.726379 11.3421C0.583206 11.2827 0.453145 11.1957 0.343638 11.086C0.234132 10.9763 0.147329 10.8461 0.0881965 10.7028C0.0290639 10.5595 -0.0012378 10.406 -0.000974866 10.251V1.61001C-0.000445425 1.29757 0.123972 0.998102 0.344992 0.77727C0.566011 0.556438 0.865589 0.432275 1.17803 0.432011H6.74403C6.89878 0.43162 7.05208 0.461908 7.19506 0.521126C7.33804 0.580343 7.46786 0.667314 7.57703 0.777011L9.07703 2.27701C9.18677 2.38614 9.27377 2.51596 9.33299 2.65894C9.39221 2.80193 9.42247 2.95525 9.42203 3.11001V4.75201C9.42471 4.80522 9.41655 4.85842 9.39804 4.90838C9.37953 4.95834 9.35105 5.00401 9.31434 5.04262C9.27763 5.08124 9.23345 5.11198 9.18449 5.13299C9.13553 5.154 9.0828 5.16483 9.02953 5.16483C8.97625 5.16483 8.92352 5.154 8.87456 5.13299C8.8256 5.11198 8.78142 5.08124 8.74471 5.04262C8.708 5.00401 8.67952 4.95834 8.66101 4.90838C8.6425 4.85842 8.63434 4.80522 8.63702 4.75201V3.11401C8.63844 3.00909 8.59858 2.90781 8.52603 2.83201L7.02203 1.33201C6.98554 1.29548 6.9422 1.26651 6.8945 1.24678C6.84679 1.22704 6.79565 1.21693 6.74403 1.21701H1.17803C1.0738 1.21701 0.973834 1.25842 0.900132 1.33212C0.82643 1.40582 0.785025 1.50578 0.785025 1.61001V10.25C0.785025 10.3542 0.82643 10.4542 0.900132 10.5279C0.936626 10.5644 0.97995 10.5933 1.02763 10.6131C1.07531 10.6328 1.12642 10.643 1.17803 10.643H4.32003C4.37324 10.6403 4.42644 10.6485 4.4764 10.667C4.52635 10.6855 4.57203 10.714 4.61064 10.7507C4.64925 10.7874 4.67999 10.8316 4.701 10.8805C4.72201 10.9295 4.73284 10.9822 4.73284 11.0355C4.73284 11.0888 4.72201 11.1415 4.701 11.1905C4.67999 11.2394 4.64925 11.2836 4.61064 11.3203C4.57203 11.357 4.52635 11.3855 4.4764 11.404C4.42644 11.4225 4.37324 11.4307 4.32003 11.428H1.17803V11.432Z" fill="#B4E7FF"/>
</svg>
