<svg width="30" height="30" viewBox="0 0 30 30" fill="none" xmlns="http://www.w3.org/2000/svg">
    <path d="M20.625 11.25C20.625 12.7418 20.0324 14.1726 18.9775 15.2275C17.9226 16.2824 16.4918 16.875 15 16.875C13.5082 16.875 12.0774 16.2824 11.0225 15.2275C9.96763 14.1726 9.375 12.7418 9.375 11.25C9.375 9.75816 9.96763 8.32742 11.0225 7.27252C12.0774 6.21763 13.5082 5.625 15 5.625C16.4918 5.625 17.9226 6.21763 18.9775 7.27252C20.0324 8.32742 20.625 9.75816 20.625 11.25V11.25Z" fill="white"/>
    <path fill-rule="evenodd" clip-rule="evenodd" d="M0 15C0 11.0218 1.58035 7.20644 4.3934 4.3934C7.20644 1.58035 11.0218 0 15 0C18.9782 0 22.7936 1.58035 25.6066 4.3934C28.4196 7.20644 30 11.0218 30 15C30 18.9782 28.4196 22.7936 25.6066 25.6066C22.7936 28.4196 18.9782 30 15 30C11.0218 30 7.20644 28.4196 4.3934 25.6066C1.58035 22.7936 0 18.9782 0 15V15ZM15 1.875C12.5283 1.87513 10.1069 2.57318 8.0145 3.8888C5.92207 5.20442 4.24366 7.08414 3.17243 9.31161C2.10121 11.5391 1.68072 14.0238 1.95937 16.4797C2.23802 18.9356 3.20447 21.2629 4.7475 23.1937C6.07875 21.0487 9.00938 18.75 15 18.75C20.9906 18.75 23.9194 21.0469 25.2525 23.1937C26.7955 21.2629 27.762 18.9356 28.0406 16.4797C28.3193 14.0238 27.8988 11.5391 26.8276 9.31161C25.7563 7.08414 24.0779 5.20442 21.9855 3.8888C19.8931 2.57318 17.4717 1.87513 15 1.875V1.875Z" fill="white"/>
</svg>