<svg width="22" height="18" viewBox="0 0 22 18" fill="none" xmlns="http://www.w3.org/2000/svg">
    <path d="M5.73999 8.62978C5.16419 8.62978 4.76741 8.37575 4.73354 7.97898H3.41016C3.43193 9.02898 4.3029 9.67978 5.68193 9.67978C7.11177 9.67978 7.98032 8.99269 7.98032 7.85317C7.98032 6.98704 7.49645 6.50075 6.41983 6.29269L5.7158 6.1572C5.13999 6.04349 4.89806 5.8693 4.89806 5.57172C4.89806 5.20882 5.21983 4.97898 5.70612 4.97898C6.19241 4.97898 6.56016 5.24753 6.59161 5.6322H7.87387C7.85209 4.62333 6.96661 3.9314 5.68919 3.9314C4.37306 3.9314 3.51903 4.63059 3.51903 5.69753C3.51903 6.5564 4.03193 7.10075 5.03112 7.28946L5.74967 7.4322C6.37387 7.55801 6.61096 7.72011 6.61096 8.02253C6.61338 8.37817 6.26016 8.62978 5.73999 8.62978Z" fill="black"/>
    <path d="M20.9032 0H0.774194C0.345968 0 0 0.345968 0 0.774194V12.7742C0 13.2024 0.345968 13.5484 0.774194 13.5484H9.96774V16.2581H5.80645C5.59355 16.2581 5.41935 16.4323 5.41935 16.6452V17.8065C5.41935 17.9129 5.50645 18 5.6129 18H16.0645C16.171 18 16.2581 17.9129 16.2581 17.8065V16.6452C16.2581 16.4323 16.0839 16.2581 15.871 16.2581H11.7097V13.5484H20.9032C21.3315 13.5484 21.6774 13.2024 21.6774 12.7742V0.774194C21.6774 0.345968 21.3315 0 20.9032 0ZM19.9355 11.8065H1.74194V1.74194H19.9355V11.8065Z" fill="#5153FF"/>
    <path d="M18.4961 8.38783H16.1783V4.07654H14.7896V9.53218H18.4961V8.38783ZM11.2719 9.67976C11.613 9.67976 11.93 9.63137 12.2179 9.53944L12.5396 10.0306H13.8291L13.159 8.97573C13.6695 8.49186 13.9574 7.73944 13.9574 6.80315C13.9574 5.02976 12.9098 3.92896 11.2743 3.92896C9.63883 3.92896 8.58399 5.02492 8.58399 6.80315C8.58157 8.58621 9.62431 9.67976 11.2719 9.67976ZM11.2719 5.08299C12.0364 5.08299 12.5469 5.75315 12.5469 6.80315C12.5469 7.20718 12.4598 7.54347 12.305 7.78299L12.1791 7.61605H10.9985L11.5646 8.49186C11.4703 8.51363 11.3711 8.52573 11.2695 8.52573C10.5025 8.52573 9.99205 7.86041 9.99205 6.80315C9.99447 5.74831 10.505 5.08299 11.2719 5.08299Z" fill="black"/>
</svg>