<svg width="17" height="20" viewBox="0 0 17 20" fill="none" xmlns="http://www.w3.org/2000/svg">
    <path d="M9.64956 9.5L1.8418 8V19.0838C1.84189 19.2043 1.86373 19.3235 1.90607 19.4347C1.94841 19.5459 2.01042 19.6469 2.08856 19.732C2.1667 19.8171 2.25944 19.8845 2.36149 19.9305C2.46354 19.9765 2.57289 20.0001 2.68331 20H16.1559C16.2664 20.0003 16.376 19.9768 16.4782 19.9309C16.5804 19.885 16.6733 19.8176 16.7516 19.7325C16.8299 19.6474 16.892 19.5463 16.9344 19.435C16.9769 19.3237 16.9987 19.2044 16.9988 19.0838V15L9.64956 9.5Z" fill="#185C37"/>
    <path d="M9.64956 3.22964e-07H2.68331C2.57289 -0.000100736 2.46354 0.0235161 2.36149 0.0695025C2.25944 0.115489 2.1667 0.182944 2.08856 0.268017C2.01042 0.35309 1.94841 0.454114 1.90607 0.565321C1.86373 0.676529 1.84189 0.795742 1.8418 0.916154V5L9.64956 10L13.7837 11.5L16.9988 10V5L9.64956 3.22964e-07Z" fill="#21A366"/>
    <path d="M1.8418 5H9.64956V10H1.8418V5Z" fill="#107C41"/>
    <path opacity="0.1" d="M7.42976 4H1.8418V16.5H7.42976C7.65242 16.4988 7.86568 16.402 8.02332 16.2305C8.18097 16.059 8.2703 15.8267 8.27197 15.5838V4.91615C8.2703 4.67334 8.18097 4.44102 8.02332 4.26953C7.86568 4.09805 7.65242 4.00121 7.42976 4Z" fill="black"/>
    <path opacity="0.2" d="M6.97056 4.5H1.8418V17H6.97056C7.19322 16.9988 7.40648 16.902 7.56412 16.7305C7.72177 16.559 7.8111 16.3267 7.81277 16.0838V5.41615C7.8111 5.17334 7.72177 4.94102 7.56412 4.76953C7.40648 4.59805 7.19322 4.50121 6.97056 4.5Z" fill="black"/>
    <path opacity="0.2" d="M6.97056 4.5H1.8418V16H6.97056C7.19322 15.9988 7.40648 15.902 7.56412 15.7305C7.72177 15.559 7.8111 15.3267 7.81277 15.0838V5.41615C7.8111 5.17334 7.72177 4.94102 7.56412 4.76953C7.40648 4.59805 7.19322 4.50121 6.97056 4.5Z" fill="black"/>
    <path opacity="0.2" d="M6.51136 4.5H1.8418V16H6.51136C6.73402 15.9988 6.94728 15.902 7.10493 15.7305C7.26257 15.559 7.35191 15.3267 7.35358 15.0838V5.41615C7.35191 5.17334 7.26257 4.94102 7.10493 4.76953C6.94728 4.59805 6.73402 4.50121 6.51136 4.5Z" fill="black"/>
    <path d="M0.842214 4.5H9.26295C9.48601 4.4998 9.70002 4.59618 9.85794 4.76797C10.0159 4.93976 10.1048 5.1729 10.1052 5.41616V14.5838C10.1048 14.8271 10.0159 15.0602 9.85794 15.232C9.70002 15.4038 9.48601 15.5002 9.26295 15.5H0.842214C0.731739 15.5002 0.62231 15.4767 0.520182 15.4307C0.418055 15.3848 0.32523 15.3173 0.247014 15.2323C0.168798 15.1472 0.106724 15.0461 0.0643396 14.9349C0.0219556 14.8236 9.25251e-05 14.7043 0 14.5838V5.41616C9.25251e-05 5.29568 0.0219556 5.1764 0.0643396 5.06514C0.106724 4.95389 0.168798 4.85283 0.247014 4.76775C0.32523 4.68266 0.418055 4.61522 0.520182 4.56928C0.62231 4.52334 0.731739 4.4998 0.842214 4.5Z" fill="url(#paint0_linear)"/>
    <path d="M2.61035 12.9792L4.38154 9.99152L2.75919 7.02075H4.06201L4.94725 8.92306C5.02907 9.10306 5.08832 9.23691 5.11513 9.32614H5.12712C5.18496 9.18152 5.24633 9.04229 5.31052 8.90614L6.25713 7.02383H7.45626L5.79229 9.97767L7.49858 12.9815H6.22256L5.19977 10.8961C5.15228 10.8065 5.11193 10.7125 5.07915 10.6154H5.06222C5.0324 10.71 4.99264 10.8006 4.94372 10.8854L3.8906 12.9792H2.61035Z" fill="white"/>
    <path d="M16.1575 1.29131e-06H9.65039V5H16.9997V0.916155C16.9996 0.795678 16.9777 0.676402 16.9353 0.565144C16.8929 0.453887 16.8309 0.352828 16.7527 0.267745C16.6744 0.182663 16.5816 0.115223 16.4795 0.0692824C16.3774 0.0233414 16.2679 -0.000200893 16.1575 1.29131e-06Z" fill="#33C481"/>
    <path d="M9.65039 10H16.9997V15H9.65039V10Z" fill="#107C41"/>
    <defs>
    <linearGradient id="paint0_linear" x1="1.7592" y1="3.78" x2="9.23862" y2="15.6579" gradientUnits="userSpaceOnUse">
    <stop stop-color="#18884F"/>
    <stop offset="0.5" stop-color="#117E43"/>
    <stop offset="1" stop-color="#0B6631"/>
    </linearGradient>
    </defs>
</svg>