<svg width="16" height="20" viewBox="0 0 16 20" fill="none" xmlns="http://www.w3.org/2000/svg">
    <path d="M13.7931 20H2.06897C1.52024 20 0.993992 19.782 0.605986 19.394C0.21798 19.006 0 18.4798 0 17.931V2.06897C0 1.52024 0.21798 0.993992 0.605986 0.605986C0.993992 0.21798 1.52024 0 2.06897 0H11.7241L15.8621 4.13793V17.931C15.8621 18.4798 15.6441 19.006 15.2561 19.394C14.8681 19.782 14.3418 20 13.7931 20Z" fill="#CFD2FC"/>
    <path d="M0 14.4828H15.8621V17.9311C15.8621 18.4798 15.6441 19.006 15.2561 19.394C14.8681 19.7821 14.3418 20 13.7931 20H2.06897C1.52024 20 0.993992 19.7821 0.605986 19.394C0.21798 19.006 0 18.4798 0 17.9311V14.4828Z" fill="#5153FF"/>
    <path d="M15.8625 4.13793H13.7936C13.2449 4.13793 12.7186 3.91995 12.3306 3.53195C11.9426 3.14394 11.7246 2.61769 11.7246 2.06897V0L15.8625 4.13793Z" fill="#8690FA"/>
    <path d="M4.82745 16.2069H5.51711C5.60856 16.2069 5.69627 16.1705 5.76094 16.1059C5.82561 16.0412 5.86194 15.9535 5.86194 15.862C5.86194 15.7706 5.82561 15.6829 5.76094 15.6182C5.69627 15.5535 5.60856 15.5172 5.51711 15.5172H4.82745C4.55309 15.5172 4.28996 15.6262 4.09596 15.8202C3.90196 16.0142 3.79297 16.2773 3.79297 16.5517C3.79297 16.8261 3.90196 17.0892 4.09596 17.2832C4.28996 17.4772 4.55309 17.5862 4.82745 17.5862C4.91891 17.5862 5.00661 17.6225 5.07128 17.6872C5.13595 17.7518 5.17228 17.8395 5.17228 17.931C5.17228 18.0225 5.13595 18.1102 5.07128 18.1748C5.00661 18.2395 4.91891 18.2758 4.82745 18.2758H4.1378C4.04634 18.2758 3.95863 18.3122 3.89397 18.3768C3.8293 18.4415 3.79297 18.5292 3.79297 18.6207C3.79297 18.7121 3.8293 18.7998 3.89397 18.8645C3.95863 18.9292 4.04634 18.9655 4.1378 18.9655H4.82745C5.10181 18.9655 5.36494 18.8565 5.55894 18.6625C5.75295 18.4685 5.86194 18.2054 5.86194 17.931C5.86194 17.6566 5.75295 17.3935 5.55894 17.1995C5.36494 17.0055 5.10181 16.8965 4.82745 16.8965C4.736 16.8965 4.64829 16.8602 4.58362 16.7955C4.51895 16.7309 4.48262 16.6431 4.48262 16.5517C4.48262 16.4602 4.51895 16.3725 4.58362 16.3079C4.64829 16.2432 4.736 16.2069 4.82745 16.2069Z" fill="white"/>
    <path d="M11.7241 18.2758H10.6897V15.862C10.6897 15.7706 10.6533 15.6829 10.5887 15.6182C10.524 15.5535 10.4363 15.5172 10.3448 15.5172C10.2534 15.5172 10.1657 15.5535 10.101 15.6182C10.0363 15.6829 10 15.7706 10 15.862V18.6207C10 18.7121 10.0363 18.7998 10.101 18.8645C10.1657 18.9292 10.2534 18.9655 10.3448 18.9655H11.7241C11.8156 18.9655 11.9033 18.9292 11.968 18.8645C12.0326 18.7998 12.069 18.7121 12.069 18.6207C12.069 18.5292 12.0326 18.4415 11.968 18.3768C11.9033 18.3122 11.8156 18.2758 11.7241 18.2758Z" fill="white"/>
    <path d="M9.06 18.2284C9.22597 17.9261 9.31183 17.5863 9.3094 17.2413C9.3094 16.2907 8.69065 15.5172 7.93009 15.5172C7.16953 15.5172 6.55078 16.2907 6.55078 17.2413C6.55078 18.192 7.16953 18.9655 7.93009 18.9655C8.17155 18.9638 8.40652 18.8871 8.6025 18.7461L8.72091 18.8645C8.75293 18.8965 8.79094 18.9219 8.83278 18.9392C8.87462 18.9566 8.91946 18.9655 8.96475 18.9655C9.01003 18.9655 9.05487 18.9566 9.09671 18.9392C9.13855 18.9219 9.17656 18.8965 9.20858 18.8645C9.2406 18.8325 9.266 18.7945 9.28333 18.7526C9.30066 18.7108 9.30958 18.6659 9.30958 18.6207C9.30958 18.5754 9.30066 18.5305 9.28333 18.4887C9.266 18.4469 9.2406 18.4088 9.20858 18.3768L9.06 18.2284ZM7.93009 18.2758C7.55625 18.2758 7.24044 17.8021 7.24044 17.2413C7.24044 16.6806 7.55625 16.2069 7.93009 16.2069C8.30393 16.2069 8.61975 16.6806 8.61975 17.2413C8.62017 17.4009 8.59384 17.5594 8.54186 17.7103L8.17393 17.3423C8.14191 17.3103 8.10389 17.2849 8.06205 17.2676C8.02022 17.2503 7.97538 17.2413 7.93009 17.2413C7.88481 17.2413 7.83996 17.2503 7.79813 17.2676C7.75629 17.2849 7.71828 17.3103 7.68625 17.3423C7.65423 17.3744 7.62883 17.4124 7.6115 17.4542C7.59417 17.4961 7.58525 17.5409 7.58525 17.5862C7.58525 17.6315 7.59417 17.6763 7.6115 17.7181C7.62883 17.76 7.65423 17.798 7.68625 17.83L8.09919 18.2429C8.0454 18.2645 7.98803 18.2756 7.93009 18.2758Z" fill="white"/>
    <path d="M4.82812 4.82764V11.0345C4.82812 11.4154 6.21756 11.7242 7.93157 11.7242C9.64558 11.7242 11.035 11.4154 11.035 11.0345V4.82764H4.82812Z" fill="#8690FA"/>
    <path d="M7.93157 5.51725C9.64556 5.51725 11.035 5.20848 11.035 4.82759C11.035 4.44671 9.64556 4.13794 7.93157 4.13794C6.21759 4.13794 4.82812 4.44671 4.82812 4.82759C4.82812 5.20848 6.21759 5.51725 7.93157 5.51725Z" fill="white"/>
    <path d="M7.93157 9.31024C6.14778 9.31024 5.06541 9.04265 4.82812 8.88403V9.61834C5.35881 9.82696 6.28899 9.99989 7.93157 9.99989C9.57416 9.99989 10.5043 9.82696 11.035 9.61834V8.88403C10.798 9.04265 9.71537 9.31024 7.93157 9.31024Z" fill="#5153FF"/>
    <path d="M7.93157 7.24127C6.14778 7.24127 5.06541 6.97368 4.82812 6.81506V7.54937C5.35881 7.75799 6.28899 7.93092 7.93157 7.93092C9.57416 7.93092 10.5043 7.75799 11.035 7.54937V6.81506C10.798 6.97368 9.71537 7.24127 7.93157 7.24127Z" fill="#5153FF"/>
</svg>