<svg width="21" height="20" viewBox="0 0 21 20" fill="none" xmlns="http://www.w3.org/2000/svg">
    <path d="M16 4C16 1.832 12.337 0 8 0C3.663 0 0 1.832 0 4V6C0 8.168 3.663 10 8 10C12.337 10 16 8.168 16 6V4ZM8 17C3.663 17 0 15.168 0 13V16C0 18.168 3.663 20 8 20C12.337 20 16 18.168 16 16V13C16 15.168 12.337 17 8 17Z" fill="#5153FF"/>
    <path d="M16 8C16 10.168 12.337 12 8 12C3.663 12 0 10.168 0 8V11C0 13.168 3.663 15 8 15C12.337 15 16 13.168 16 11V8Z" fill="#5153FF"/>
    <g clip-path="url(#clip0)">
    <rect x="12.8574" y="12.2858" width="5.14286" height="5.14286" fill="white"/>
    <path d="M19.5954 11.7658L18.6199 12.7556C18.8781 13.1573 19.0646 13.6163 19.1507 14.1041H20.5709V15.6247H19.1507C19.0646 16.1124 18.8781 16.5572 18.6199 16.9588L19.5954 17.963L18.5195 19.0389L17.5296 18.0491C17.128 18.3073 16.6832 18.5081 16.1955 18.5942V20.0001H14.6605V18.5942C14.1728 18.5081 13.7281 18.3073 13.3264 18.0491L12.3222 19.0389L11.2606 17.963L12.2361 16.9588C11.9779 16.5572 11.7771 16.1124 11.691 15.6247H10.2852V14.1041H11.691C11.7771 13.6163 11.9779 13.1573 12.2361 12.7556L11.2606 11.7658L12.3222 10.6898L13.3264 11.6797C13.7281 11.4215 14.1728 11.2206 14.6605 11.1346V9.71436H16.1955V11.1346C16.6832 11.2206 17.128 11.4215 17.5296 11.6797L18.5195 10.6898L19.5954 11.7658ZM15.4208 16.9875C16.5972 16.9875 17.5583 16.0407 17.5583 14.8644C17.5583 13.6881 16.5972 12.7269 15.4208 12.7269C14.2445 12.7269 13.3121 13.6881 13.3121 14.8644C13.3121 16.0407 14.2445 16.9875 15.4208 16.9875Z" fill="#CFD2FC"/>
    </g>
    <defs>
    <clipPath id="clip0">
    <rect width="10.2857" height="10.2857" fill="white" transform="translate(10.2852 9.71436)"/>
    </clipPath>
    </defs>
</svg>