<svg width="60" height="60" viewBox="0 0 60 60" fill="none" xmlns="http://www.w3.org/2000/svg">
    <path d="M50.7047 51.1608C47.2452 55.1347 42.6539 58.0489 37.1459 59.2255C24.4634 61.9344 7.32065 57.8051 3.46008 42.5786C1.10707 33.2981 2.75465 22.4436 7.58782 14.4025C12.9001 5.56411 22.4906 -0.399779 32.306 0.0209179C41.9096 0.432489 51.3224 8.66458 55.301 17.8206C60.3181 29.3667 58.0894 42.6781 50.7047 51.1608Z" fill="url(#paint0_linear)"/>
    <g opacity="0.3">
    <path opacity="0.3" d="M14.1409 3.59027C14.0562 3.63999 13.9464 3.61359 13.8953 3.53148C13.796 3.37188 13.6881 3.214 13.5745 3.0623C13.5171 2.9855 13.5336 2.87836 13.6112 2.82145C13.6121 2.82076 13.613 2.82008 13.614 2.81939C13.6939 2.76282 13.8057 2.77996 13.8639 2.85779C13.9834 3.01738 14.097 3.18366 14.2015 3.35165C14.2493 3.42845 14.2287 3.52702 14.1566 3.58016C14.1516 3.58359 14.1463 3.58702 14.1409 3.59027ZM12.9699 2.36084C12.8363 2.22576 12.6954 2.09479 12.5512 1.97171C12.4769 1.90846 12.4695 1.79858 12.5346 1.72641C12.6002 1.65407 12.7128 1.64704 12.7871 1.71029C12.9389 1.83972 13.0872 1.97754 13.2279 2.11965C13.2963 2.1889 13.2942 2.29895 13.2229 2.36547C13.2178 2.37027 13.2124 2.37472 13.2067 2.37884C13.1353 2.43146 13.0334 2.42495 12.9699 2.36084ZM11.8023 1.41802C11.6415 1.31551 11.4742 1.21848 11.3047 1.12969C11.2178 1.08409 11.1854 0.978666 11.2321 0.894155C11.279 0.809815 11.3874 0.778102 11.4744 0.8237C11.6526 0.917125 11.8289 1.01929 11.9982 1.12729C12.0807 1.17991 12.1038 1.28774 12.0497 1.36814C12.0381 1.38528 12.0239 1.39968 12.0081 1.4115C11.9497 1.45436 11.8672 1.4595 11.8023 1.41802ZM10.4471 0.752732C10.2665 0.687592 10.081 0.62948 9.89556 0.579767C9.80034 0.554226 9.74445 0.458401 9.77072 0.365833C9.79717 0.273266 9.89556 0.219096 9.99077 0.244467C10.186 0.296922 10.3813 0.358119 10.5714 0.426688C10.664 0.460115 10.7112 0.560225 10.677 0.650222C10.6647 0.682449 10.6437 0.709019 10.6174 0.72839C10.5702 0.762846 10.5065 0.77416 10.4471 0.752732ZM8.97321 0.397546C8.78278 0.373204 8.58847 0.356234 8.39593 0.347663C8.29719 0.343206 8.22102 0.26178 8.2256 0.165784C8.23019 0.0697882 8.31394 -0.00426589 8.41268 0.000191076C8.61528 0.00927642 8.81963 0.0271043 9.02011 0.0528175C9.11797 0.0653313 9.18691 0.152756 9.17404 0.247895C9.16752 0.295893 9.14142 0.336692 9.10475 0.363776C9.06843 0.390518 9.02188 0.403889 8.97321 0.397546ZM7.45525 0.368405C7.26376 0.385547 7.07051 0.410917 6.88114 0.44383C6.78399 0.460629 6.69089 0.397718 6.67361 0.303264C6.65615 0.20864 6.72086 0.1183 6.81819 0.101501C7.01761 0.066874 7.22091 0.0401323 7.42245 0.022133C7.52084 0.0133905 7.60794 0.0836733 7.61694 0.179327C7.62275 0.241381 7.59437 0.298979 7.54658 0.333949C7.52102 0.352805 7.48981 0.365319 7.45525 0.368405ZM1.8711 3.86506C1.78418 3.81929 1.75191 3.71387 1.79899 3.62936C1.89526 3.45639 2.00088 3.28514 2.11231 3.12041C2.16662 3.04018 2.27753 3.01807 2.36005 3.07087C2.44257 3.12366 2.46531 3.23149 2.411 3.31171C2.30503 3.46805 2.20488 3.63073 2.11355 3.79512C2.10103 3.81758 2.0841 3.83643 2.06435 3.85101C2.01022 3.8906 1.93476 3.89849 1.8711 3.86506ZM5.96937 0.666678C5.7867 0.72479 5.60421 0.791302 5.42736 0.864499C5.33638 0.90204 5.23129 0.860899 5.19267 0.772445C5.15406 0.683992 5.19655 0.582339 5.28736 0.544283C5.47373 0.467315 5.66575 0.397203 5.85812 0.336006C5.95192 0.306179 6.05295 0.355891 6.08381 0.447259C6.10814 0.519598 6.08099 0.596395 6.02174 0.639936C6.0064 0.651593 5.98877 0.660507 5.96937 0.666678ZM2.7298 2.60014C2.65574 2.53672 2.64851 2.42684 2.71375 2.35467C2.8474 2.20707 2.98952 2.06308 3.13587 1.92663C3.20693 1.85977 3.32048 1.86252 3.38871 1.93194C3.45713 2.0012 3.45466 2.11142 3.38325 2.17776C3.24413 2.30735 3.10907 2.44415 2.98211 2.58454C2.974 2.59346 2.96519 2.60134 2.95567 2.60837C2.88954 2.65723 2.79468 2.65568 2.7298 2.60014ZM4.58947 1.28037C4.42479 1.37671 4.26222 1.48127 4.10635 1.59116C4.0263 1.64755 3.91451 1.63024 3.8565 1.55241C3.79937 1.47562 3.81594 1.36882 3.89335 1.31174C3.89441 1.31105 3.89547 1.31019 3.89635 1.30951C4.0605 1.1938 4.23154 1.08375 4.40486 0.982265C4.4895 0.932725 4.59952 0.959295 4.6503 1.04158C4.69791 1.11837 4.6771 1.21677 4.60517 1.26974C4.60023 1.27368 4.59494 1.27711 4.58947 1.28037Z" fill="#91B3FA"/>
    <path opacity="0.3" d="M1.56853 4.97279C1.59657 4.95205 1.61879 4.92325 1.63042 4.88811C1.65899 4.80291 1.68984 4.71686 1.72211 4.63217C1.75649 4.54218 1.70942 4.44207 1.61667 4.40864C1.5241 4.37521 1.42095 4.42098 1.38675 4.51115C1.35272 4.60012 1.32027 4.69063 1.29012 4.78028C1.25944 4.87165 1.31093 4.9697 1.40473 4.99953C1.46292 5.01787 1.5234 5.00604 1.56853 4.97279Z" fill="#91B3FA"/>
    </g>
    <g opacity="0.3">
    <path opacity="0.3" d="M2.03753 10.2548C2.1063 10.2041 2.12922 10.111 2.08726 10.0346C2.04388 9.95537 2.00156 9.87412 1.96136 9.79286C1.91852 9.70629 1.81166 9.66978 1.72262 9.71144C1.63323 9.75326 1.59602 9.85697 1.63887 9.94354C1.68119 10.0291 1.7258 10.1148 1.77146 10.1981C1.81784 10.2828 1.92627 10.315 2.01338 10.2699C2.02202 10.2655 2.02995 10.2603 2.03753 10.2548Z" fill="#91B3FA"/>
    <path opacity="0.3" d="M12.1042 12.6798C12.0225 12.7339 11.9113 12.7135 11.8556 12.6342C11.7998 12.5548 11.8208 12.4468 11.9025 12.3925C12.0578 12.2894 12.211 12.1782 12.3597 12.0609C12.4358 12.0004 12.549 12.0119 12.6113 12.0865C12.6735 12.161 12.6619 12.2706 12.5852 12.3311C12.5208 12.3818 12.4558 12.4315 12.3902 12.4797C12.2964 12.5486 12.2003 12.616 12.1042 12.6798ZM13.0457 11.6932C12.9738 11.6276 12.9701 11.5175 13.0376 11.4474C13.1674 11.3128 13.2926 11.1716 13.41 11.0274C13.471 10.952 13.5839 10.9393 13.6613 10.999C13.7387 11.0585 13.7517 11.168 13.6905 11.2432C13.5669 11.395 13.4351 11.5438 13.2986 11.6853C13.2915 11.6927 13.2839 11.6992 13.276 11.7052C13.2076 11.7553 13.1103 11.752 13.0457 11.6932ZM11.2635 13.1592C11.0854 13.2455 10.9009 13.3255 10.7155 13.397C10.6236 13.4323 10.5197 13.3888 10.4832 13.2995C10.4469 13.2101 10.4919 13.1092 10.5836 13.0737C10.7597 13.0058 10.9348 12.9299 11.1041 12.8479C11.1926 12.8051 11.3 12.84 11.344 12.9261C11.383 13.0022 11.3592 13.0925 11.292 13.1421C11.283 13.1486 11.2735 13.1543 11.2635 13.1592ZM13.9966 10.5229C13.9115 10.4743 13.8831 10.3676 13.9332 10.2848C14.0293 10.1261 14.1194 9.9617 14.2013 9.79576C14.244 9.70902 14.3509 9.67268 14.4399 9.71417C14.529 9.75565 14.5665 9.85953 14.5238 9.9461C14.4376 10.1208 14.3426 10.2941 14.2416 10.4611C14.2294 10.4813 14.2135 10.4982 14.1955 10.5114C14.1395 10.5531 14.061 10.5598 13.9966 10.5229ZM9.78747 13.6846C9.59422 13.7306 9.39638 13.7693 9.19925 13.7993C9.10175 13.8142 9.01024 13.7494 8.99472 13.6546C8.97938 13.5597 9.04603 13.4707 9.14354 13.4558C9.33079 13.4272 9.51875 13.3905 9.7023 13.3468C9.79822 13.324 9.8952 13.3811 9.91865 13.4743C9.93611 13.5437 9.90807 13.6138 9.85288 13.6543C9.83402 13.6684 9.8118 13.6788 9.78747 13.6846ZM8.2286 13.8826C8.02935 13.8864 7.82746 13.8821 7.62875 13.8699C7.53018 13.8638 7.45525 13.7812 7.46159 13.6853C7.46794 13.5893 7.55293 13.5166 7.65149 13.5228C7.84034 13.5345 8.032 13.5386 8.22155 13.535C8.32029 13.5331 8.40192 13.6094 8.40386 13.7054C8.4051 13.7633 8.37706 13.8151 8.33298 13.8475C8.30389 13.8689 8.26792 13.8819 8.2286 13.8826ZM6.6625 13.7457C6.46696 13.7073 6.27089 13.6603 6.07975 13.6063C5.98489 13.5794 5.93041 13.483 5.95792 13.3908C5.9856 13.2984 6.08487 13.2456 6.17955 13.2724C6.36117 13.3238 6.54736 13.3684 6.73321 13.4049C6.83001 13.4239 6.8926 13.5156 6.87303 13.6097C6.86404 13.6529 6.83935 13.6891 6.80585 13.7138C6.76653 13.7429 6.71487 13.756 6.6625 13.7457ZM5.16429 13.2797C4.98215 13.2007 4.80142 13.1131 4.62703 13.0194C4.54063 12.9729 4.50907 12.8671 4.55686 12.783C4.60446 12.699 4.71343 12.6685 4.79983 12.7149C4.9654 12.8039 5.13713 12.887 5.31011 12.9621C5.40038 13.0012 5.44076 13.104 5.40038 13.1918C5.38769 13.2196 5.36847 13.2424 5.34519 13.2595C5.29512 13.2965 5.22618 13.3067 5.16429 13.2797ZM3.80748 12.5049C3.64809 12.389 3.49169 12.2649 3.3427 12.1362C3.26882 12.0724 3.26212 11.9624 3.32789 11.8907C3.3933 11.8192 3.5065 11.8124 3.58038 11.8763C3.72197 11.9987 3.87043 12.1165 4.02189 12.2267C4.10106 12.2841 4.11711 12.3931 4.05804 12.4701C4.04781 12.4835 4.03582 12.4951 4.02277 12.5047C3.96071 12.55 3.87272 12.5524 3.80748 12.5049ZM2.65998 11.4603C2.56441 11.3521 2.47131 11.2396 2.3828 11.1262C2.35071 11.085 2.31932 11.0437 2.28847 11.0022C2.23063 10.9244 2.24632 10.8149 2.32849 10.7595C2.40854 10.7031 2.52033 10.7206 2.57834 10.7984C2.60779 10.8378 2.63758 10.8773 2.66809 10.9162C2.75219 11.024 2.84071 11.1308 2.93151 11.2338C2.99587 11.3067 2.98723 11.4166 2.9123 11.479C2.90947 11.4814 2.90665 11.4836 2.90366 11.4858C2.82872 11.5408 2.72187 11.5304 2.65998 11.4603Z" fill="#91B3FA"/>
    <path opacity="0.3" d="M14.8221 9.14677C14.8505 9.12586 14.8727 9.09672 14.8844 9.06123C14.914 8.97158 14.942 8.8797 14.9681 8.78782C14.9944 8.69525 14.9385 8.59943 14.8431 8.57406C14.7479 8.54851 14.6494 8.60285 14.6233 8.69559C14.5986 8.78267 14.5718 8.8701 14.5437 8.95512C14.5136 9.04649 14.5654 9.14437 14.6594 9.17369C14.7171 9.19186 14.7772 9.17986 14.8221 9.14677Z" fill="#91B3FA"/>
    </g>
    <path d="M13.4225 6.49468C13.4237 6.46005 13.4024 6.42834 13.369 6.41582L12.4199 6.05978C12.3284 5.60654 12.1619 5.1641 11.9193 4.75132L12.3975 3.87896C12.4143 3.84827 12.4091 3.81073 12.385 3.78536L11.554 2.91642C11.5296 2.89105 11.4916 2.88334 11.4589 2.8974L10.5292 3.29784C10.1233 3.03265 9.68161 2.83911 9.22317 2.71758L8.92659 1.77133C8.91619 1.73824 8.88533 1.7151 8.84972 1.71373L7.63009 1.6707C7.59447 1.6695 7.56185 1.69025 7.54898 1.72264L7.18258 2.64541C6.71639 2.73437 6.2613 2.8962 5.83671 3.13207L4.93941 2.66718C4.90785 2.65089 4.86923 2.65569 4.84314 2.67935L3.94936 3.48726C3.92326 3.51091 3.9155 3.54794 3.92978 3.57965L4.34167 4.48356C4.0689 4.87817 3.86983 5.30758 3.74482 5.75328L2.77152 6.04161C2.73749 6.05172 2.71369 6.08172 2.71228 6.11635L2.66802 7.30207C2.66679 7.3367 2.68812 7.36841 2.72145 7.38076L3.67077 7.73697C3.76228 8.19021 3.92873 8.63265 4.17135 9.04543L3.69316 9.9178C3.67641 9.94831 3.68135 9.98602 3.70568 10.0114L4.53686 10.8803C4.5612 10.9057 4.59928 10.9134 4.6319 10.8994L5.56165 10.4989C5.96755 10.7641 6.40923 10.9576 6.86767 11.0792L7.16425 12.0254C7.17465 12.0585 7.20551 12.0816 7.24112 12.083L8.46075 12.126C8.49637 12.1272 8.52899 12.1065 8.54168 12.0741L8.90808 11.1512C9.37428 11.0622 9.82936 10.9004 10.2539 10.6645L11.1513 11.1294C11.1826 11.1457 11.2214 11.1407 11.2475 11.1172L12.1413 10.3092C12.1674 10.2855 12.1753 10.2485 12.1609 10.2168L11.749 9.31285C12.0218 8.91824 12.2208 8.48882 12.3458 8.04313L13.3191 7.7548C13.3532 7.74468 13.377 7.71469 13.3784 7.68006L13.4225 6.49468Z" fill="#91B3FA"/>
    <path d="M8.63592 7.94404C8.04294 8.26031 7.29569 8.04861 6.97019 7.47212C6.81256 7.19287 6.77624 6.8706 6.86793 6.56478C6.95961 6.25897 7.1682 6.00612 7.45561 5.85287C8.04876 5.53659 8.79584 5.7483 9.12133 6.32479C9.41738 6.84934 9.2638 7.49783 8.78702 7.8489C8.73995 7.8837 8.68934 7.91559 8.63592 7.94404ZM7.14281 6.64261C7.07246 6.87711 7.10032 7.12413 7.22128 7.33841C7.47077 7.78033 8.04365 7.94284 8.49838 7.70028C8.9533 7.45789 9.1201 6.90077 8.8706 6.45867C8.6211 6.01675 8.04823 5.85424 7.59349 6.0968C7.55223 6.11874 7.51327 6.14343 7.47642 6.17051C7.31649 6.28828 7.19994 6.45199 7.14281 6.64261Z" fill="#BDD0FB"/>
    <path d="M9.83525 9.23694C9.91707 9.1766 9.99641 9.11197 10.0726 9.04306C10.0966 9.02146 10.1202 8.99935 10.1435 8.97689C10.2583 8.86633 10.3637 8.74685 10.4584 8.62068C10.4596 8.61897 10.461 8.61725 10.4623 8.61554C10.466 8.61057 10.4695 8.60577 10.4732 8.60079C10.4802 8.59119 10.4873 8.5816 10.4942 8.572C10.5123 8.54663 10.5107 8.51371 10.4926 8.49023C10.4882 8.48457 10.4827 8.47943 10.4764 8.47514C10.4439 8.4532 10.3995 8.46091 10.3767 8.49246C10.2604 8.65462 10.1253 8.80547 9.97508 8.94124C9.22959 9.61544 8.21079 9.82972 7.29162 9.59744C6.78029 9.46836 6.29981 9.20111 5.91419 8.79776C5.84648 8.72713 5.783 8.65359 5.72394 8.57765C5.32597 8.06665 5.12267 7.44336 5.14683 6.79418C5.17469 6.0485 5.49948 5.35801 6.06159 4.84992C7.2225 3.80065 9.04356 3.86528 10.1225 4.9934C10.189 5.063 10.2517 5.13551 10.3103 5.21076C10.5642 5.53681 10.7417 5.91308 10.829 6.31352C10.8313 6.3238 10.8357 6.33323 10.8419 6.34112C10.8581 6.36186 10.8858 6.373 10.9138 6.36717C10.9524 6.35912 10.9773 6.32243 10.969 6.28472C10.8773 5.86439 10.6908 5.46927 10.4243 5.12694C10.3628 5.04791 10.297 4.9718 10.2274 4.89878C9.0947 3.71443 7.18195 3.6474 5.96426 4.7481C5.37411 5.28156 5.0331 6.0065 5.00401 6.78921C4.97844 7.47078 5.19197 8.1251 5.60985 8.66165C5.67192 8.74136 5.73857 8.8185 5.80945 8.89273C6.35817 9.46647 7.10384 9.798 7.90893 9.82646C8.61016 9.85097 9.28336 9.64321 9.83525 9.23694Z" fill="#BDD0FB"/>
    <g opacity="0.3">
    <path opacity="0.3" d="M21.8687 3.65078C21.9068 3.62267 21.923 3.57279 21.9052 3.52702C21.8719 3.44182 21.8355 3.35628 21.7971 3.27314C21.7721 3.21915 21.7068 3.19498 21.6511 3.21932C21.5952 3.24349 21.5707 3.30726 21.5957 3.36125C21.6324 3.44062 21.6672 3.52205 21.6989 3.6033C21.7204 3.65867 21.7842 3.68661 21.8414 3.6657C21.8514 3.66193 21.8606 3.65678 21.8687 3.65078Z" fill="#91B3FA"/>
    <path opacity="0.3" d="M21.4856 2.91475C21.4335 2.94561 21.3656 2.9295 21.3338 2.87875C21.2538 2.75087 21.166 2.62539 21.0731 2.50608C21.0535 2.48089 21.0336 2.45586 21.0131 2.431C20.9754 2.38455 20.9835 2.31701 21.0313 2.28015C21.078 2.24707 21.1485 2.25135 21.1864 2.29781C21.2076 2.32386 21.2286 2.35009 21.249 2.37649C21.3465 2.50163 21.4384 2.63311 21.5223 2.76716C21.5521 2.81464 21.5394 2.87567 21.4948 2.90858C21.492 2.91064 21.489 2.9127 21.4856 2.91475ZM20.6391 2.02456C20.5064 1.89685 20.3642 1.77617 20.2168 1.6656C20.1685 1.62943 20.1595 1.56207 20.1967 1.51492C20.2339 1.4683 20.3034 1.45921 20.3517 1.49538C20.5062 1.61126 20.6552 1.73777 20.7945 1.87165C20.8378 1.91331 20.8382 1.98136 20.7953 2.02353C20.7916 2.02713 20.7876 2.03056 20.7834 2.03365C20.7403 2.06553 20.6786 2.06262 20.6391 2.02456ZM19.752 1.36013C19.5914 1.26808 19.4232 1.18511 19.2518 1.11311C19.1959 1.08963 19.17 1.02637 19.1943 0.971861C19.2187 0.917177 19.2836 0.892321 19.3396 0.915806C19.5193 0.991231 19.6958 1.07848 19.8642 1.175C19.9167 1.20517 19.9344 1.27099 19.9033 1.32207C19.8957 1.33442 19.886 1.34487 19.8748 1.3531C19.8402 1.37864 19.7917 1.38293 19.752 1.36013ZM18.7241 0.927977C18.5449 0.877064 18.3607 0.836438 18.1771 0.807467C18.1168 0.797868 18.0759 0.74267 18.0858 0.684215C18.0957 0.62576 18.1523 0.585991 18.2126 0.595419C18.4053 0.625932 18.5982 0.668444 18.7863 0.721756C18.8449 0.738384 18.8785 0.798039 18.8614 0.855123C18.8544 0.878093 18.8405 0.897121 18.8221 0.910492C18.7948 0.930376 18.759 0.937919 18.7241 0.927977ZM17.6187 0.752955C17.4322 0.745927 17.2437 0.750041 17.058 0.765126C16.9974 0.770097 16.9438 0.726213 16.9386 0.667073C16.9335 0.607933 16.9787 0.555992 17.0395 0.55102C17.234 0.535078 17.4318 0.530793 17.6272 0.538164C17.6882 0.540564 17.7356 0.590447 17.7333 0.649588C17.7319 0.683015 17.715 0.712328 17.6896 0.731185C17.67 0.745755 17.6452 0.753812 17.6187 0.752955ZM16.5031 0.84398C16.3206 0.881178 16.139 0.929862 15.9629 0.98866C15.9052 1.00786 15.8423 0.978032 15.8225 0.921977C15.8028 0.865922 15.8333 0.804896 15.8911 0.785525C16.0757 0.723813 16.2663 0.67273 16.4578 0.633646C16.5176 0.621475 16.5761 0.658673 16.5886 0.716614C16.5976 0.758612 16.5802 0.800096 16.5472 0.824438C16.5345 0.833866 16.5197 0.840723 16.5031 0.84398ZM15.4448 1.19745C15.2779 1.27682 15.1139 1.3675 14.9573 1.46693C14.9062 1.49932 14.8378 1.48527 14.8044 1.43573C14.7711 1.38619 14.7859 1.32036 14.8365 1.28693C15.0007 1.18271 15.1728 1.08774 15.3479 1.00443C15.4027 0.978374 15.4688 1.00049 15.4956 1.0538C15.5192 1.1006 15.5044 1.15614 15.4632 1.18648C15.4575 1.19059 15.4514 1.19437 15.4448 1.19745ZM13.9456 2.17541C13.9008 2.13513 13.8981 2.06724 13.9396 2.0237C14.0544 1.90319 14.1778 1.7868 14.3063 1.67777C14.3257 1.66115 14.3453 1.64486 14.365 1.62858C14.4104 1.58915 14.4814 1.59601 14.5207 1.6416C14.5601 1.68703 14.5541 1.75474 14.5075 1.79297C14.489 1.80806 14.4705 1.82348 14.452 1.83943C14.3291 1.94365 14.2111 2.05473 14.1018 2.16958C14.0974 2.17438 14.0924 2.1785 14.0873 2.18227C14.0452 2.21312 13.9854 2.21124 13.9456 2.17541Z" fill="#91B3FA"/>
    </g>
    <g opacity="0.3">
    <path opacity="0.3" d="M20.2687 8.91039C20.1137 9.02148 19.9504 9.12416 19.7833 9.21604C19.7302 9.24518 19.6628 9.22701 19.6327 9.17524C19.6027 9.12347 19.6221 9.05833 19.6746 9.02885C19.834 8.94142 19.9897 8.84337 20.1377 8.73726C20.1867 8.70212 20.256 8.71223 20.2921 8.76006C20.3281 8.80737 20.3181 8.87405 20.2699 8.90937C20.2699 8.90937 20.2692 8.91005 20.2687 8.91039ZM20.557 8.54527C20.5152 8.50207 20.5173 8.43419 20.5617 8.39356C20.6954 8.27116 20.8227 8.13985 20.9403 8.00289C20.9793 7.9578 21.0491 7.95129 21.096 7.98935C21.1429 8.0274 21.1491 8.09494 21.1099 8.14054C20.9867 8.28402 20.8532 8.42167 20.7132 8.5499C20.7102 8.55264 20.7072 8.55504 20.704 8.55744C20.6596 8.59018 20.5961 8.58572 20.557 8.54527ZM19.2629 9.4622C19.0849 9.53351 18.9008 9.59505 18.7158 9.64476C18.6569 9.66054 18.5961 9.62694 18.5799 9.56985C18.5635 9.5126 18.598 9.4538 18.6567 9.43769C18.8332 9.3902 19.0087 9.33175 19.1787 9.2637C19.2351 9.24107 19.2996 9.26729 19.3229 9.32198C19.3425 9.36809 19.3266 9.41986 19.2874 9.44849C19.2802 9.45397 19.2719 9.4586 19.2629 9.4622ZM21.3 7.71919C21.2487 7.68713 21.2341 7.62062 21.267 7.57073C21.3665 7.42074 21.4575 7.26338 21.5373 7.10293C21.5639 7.04961 21.6301 7.02733 21.6849 7.05304C21.7399 7.07893 21.7628 7.14321 21.7362 7.19652C21.6525 7.36486 21.5571 7.52994 21.4527 7.68713C21.4455 7.69793 21.4365 7.70719 21.4266 7.71456C21.3906 7.74113 21.3402 7.74438 21.3 7.71919ZM18.1502 9.76116C17.9601 9.78876 17.7663 9.80522 17.5739 9.81036C17.5129 9.8119 17.4622 9.7651 17.4606 9.70579C17.459 9.64648 17.5069 9.59711 17.5679 9.59557C17.7513 9.59077 17.9361 9.575 18.1175 9.5486C18.1778 9.53986 18.2341 9.58031 18.2431 9.63911C18.2493 9.67922 18.2316 9.71762 18.2004 9.74059C18.1861 9.75105 18.169 9.75842 18.1502 9.76116ZM16.996 9.79202C16.8043 9.77453 16.6119 9.74556 16.4243 9.70579C16.3647 9.69328 16.327 9.63602 16.3399 9.57808C16.3527 9.52014 16.4116 9.48329 16.4712 9.49597C16.6502 9.53368 16.8336 9.56128 17.0166 9.57808C17.0772 9.58357 17.122 9.63602 17.1162 9.69516C17.1132 9.72636 17.0968 9.75327 17.0728 9.77076C17.0517 9.78636 17.0245 9.79459 16.996 9.79202ZM15.8671 9.55323C15.6852 9.49151 15.5055 9.41849 15.3332 9.33621C15.2784 9.30998 15.256 9.2457 15.2828 9.19238C15.3098 9.13924 15.3759 9.1173 15.4307 9.14336C15.5951 9.22204 15.7663 9.29164 15.94 9.35026C15.9976 9.3698 16.0281 9.431 16.0078 9.48706C16.0004 9.5078 15.987 9.52494 15.9703 9.53728C15.9419 9.5582 15.9035 9.5654 15.8671 9.55323Z" fill="#91B3FA"/>
    <path opacity="0.3" d="M21.9196 6.72223C21.9366 6.70972 21.9501 6.6924 21.9574 6.67115C21.9879 6.58406 22.0157 6.49578 22.0404 6.4087C22.0566 6.35145 22.0221 6.29231 21.9632 6.27654C21.9045 6.26094 21.8436 6.29436 21.8272 6.35162C21.8038 6.43476 21.777 6.51892 21.7481 6.60206C21.7285 6.65829 21.7594 6.71932 21.8172 6.73834C21.8533 6.75034 21.8914 6.74314 21.9196 6.72223Z" fill="#91B3FA"/>
    </g>
    <path d="M21.0152 4.87668C21.0161 4.85354 21.0016 4.83229 20.9794 4.82389L20.3441 4.58561C20.2829 4.28219 20.1715 3.98632 20.0091 3.70999L20.3291 3.12613C20.3404 3.10573 20.3369 3.08053 20.3206 3.06356L19.7645 2.4821C19.7483 2.46513 19.7227 2.45998 19.7009 2.46941L19.0788 2.73734C18.8073 2.55992 18.5116 2.43033 18.2048 2.34907L18.0064 1.71584C17.9995 1.69356 17.9787 1.67813 17.9549 1.67727L17.1387 1.64847C17.1149 1.64762 17.0931 1.66167 17.0844 1.68327L16.8393 2.30073C16.5272 2.36022 16.2227 2.46855 15.9387 2.62643L15.3383 2.3153C15.3173 2.30433 15.2914 2.30759 15.2739 2.32353L14.6759 2.8642C14.6584 2.87997 14.6531 2.90482 14.6628 2.92608L14.9384 3.53085C14.7559 3.79484 14.6226 4.08232 14.539 4.38059L13.8877 4.57344C13.8649 4.58012 13.8489 4.60035 13.848 4.62349L13.8184 5.417C13.8175 5.44015 13.832 5.4614 13.8542 5.46963L14.4893 5.70808C14.5505 6.01149 14.6619 6.30737 14.8243 6.5837L14.5043 7.16756C14.493 7.18796 14.4964 7.21316 14.5128 7.23013L15.0689 7.81159C15.0851 7.82856 15.1107 7.8337 15.1325 7.82428L15.7546 7.55634C16.0261 7.73377 16.3218 7.86336 16.6286 7.94461L16.827 8.57784C16.8339 8.59996 16.8547 8.61556 16.8785 8.61641L17.6947 8.64521C17.7185 8.64607 17.7403 8.63201 17.749 8.61041L17.9941 7.99295C18.3062 7.93347 18.6105 7.82513 18.8947 7.66725L19.4951 7.97838C19.5161 7.98935 19.542 7.98593 19.5595 7.97016L20.1575 7.42949C20.175 7.41372 20.1803 7.38887 20.1706 7.36761L19.8952 6.76266C20.0777 6.49867 20.2108 6.2112 20.2945 5.91293L20.9459 5.72008C20.9686 5.71339 20.9847 5.69316 20.9856 5.67002L21.0152 4.87668Z" fill="#91B3FA"/>
    <path d="M17.8196 5.85892C17.6239 5.96331 17.398 5.98748 17.1838 5.92663C16.9696 5.86595 16.7923 5.72778 16.685 5.5375C16.4633 5.14477 16.6114 4.65091 17.0156 4.4344C17.4197 4.2191 17.9286 4.36326 18.15 4.75582C18.2574 4.9461 18.2821 5.16552 18.2197 5.37397C18.1689 5.54333 18.0654 5.68887 17.9233 5.79343C17.891 5.81761 17.8563 5.83938 17.8196 5.85892ZM16.8787 5.43413C16.9577 5.57419 17.088 5.67584 17.2457 5.72041C17.4033 5.76498 17.5694 5.74732 17.7133 5.67053C17.8572 5.59356 17.9617 5.46705 18.0077 5.3138C18.0538 5.16055 18.0354 4.99907 17.9564 4.85919C17.7933 4.57034 17.419 4.46423 17.1219 4.62262C17.0951 4.63702 17.0699 4.65297 17.0461 4.67045C16.8073 4.84633 16.7305 5.17135 16.8787 5.43413Z" fill="#BDD0FB"/>
    <path d="M18.6544 6.75868C18.7101 6.71771 18.7641 6.67348 18.8164 6.62634C18.9203 6.53257 19.0143 6.42852 19.0963 6.31658C19.1 6.31161 19.1035 6.30647 19.1072 6.3015C19.1354 6.26241 19.1329 6.21133 19.1047 6.17516C19.0978 6.16642 19.0896 6.15853 19.0797 6.15184C19.0296 6.1179 18.961 6.13007 18.9259 6.17842C18.8505 6.28367 18.763 6.38121 18.666 6.46897C18.6607 6.47377 18.6553 6.47857 18.65 6.4832C18.4185 6.68857 18.1431 6.82999 17.8467 6.90079C17.6857 6.93918 17.5185 6.95684 17.3485 6.95238C17.3471 6.95238 17.3457 6.95238 17.3445 6.95221C17.3403 6.95204 17.336 6.95204 17.3318 6.95187C16.8353 6.93421 16.3754 6.72988 16.0371 6.37606C15.9932 6.33029 15.9522 6.28281 15.914 6.23361C15.6564 5.90277 15.5247 5.49924 15.5404 5.07892C15.5583 4.59619 15.7689 4.14929 16.1326 3.82034C16.4964 3.49172 16.9703 3.31996 17.4669 3.33744C17.9634 3.35493 18.4232 3.55943 18.7616 3.91325C18.8046 3.95816 18.8452 4.0053 18.8831 4.05381C19.0474 4.26483 19.1624 4.50842 19.219 4.76761C19.2225 4.78356 19.2294 4.79796 19.2389 4.81013C19.2639 4.84218 19.3066 4.85932 19.3498 4.85041C19.4094 4.8379 19.4477 4.78116 19.435 4.72304C19.3717 4.433 19.2431 4.16044 19.0592 3.92439C19.0167 3.86988 18.9714 3.81725 18.9233 3.76702C18.5447 3.37121 18.0302 3.14254 17.4748 3.12282C16.9194 3.10328 16.3892 3.29459 15.9822 3.66314C15.5751 4.03119 15.3399 4.53122 15.3198 5.07137C15.3021 5.54158 15.4495 5.99311 15.7377 6.36321C15.7805 6.41806 15.8264 6.47137 15.8754 6.52263C16.6082 7.28871 17.8142 7.37734 18.6544 6.75868Z" fill="#BDD0FB"/>
    <path d="M25.2489 47.1624L23.9531 57.3034H38.9842L37.0264 47.1624H25.2489Z" fill="url(#paint1_linear)"/>
    <path d="M0 14.6916V44.8755C0 47.3585 1.74454 49.3891 3.93298 49.4531C13.6529 49.7375 47.6482 50.4268 56.9009 50.272C58.4912 50.2453 59.7795 48.802 59.8252 46.9987C60.0036 39.9867 60.2934 23.1247 59.2211 15.2964C58.9954 13.6479 57.7684 12.4151 56.2983 12.3618C48.1543 12.0664 12.117 11.128 2.8687 11.3634C1.27354 11.4042 0 12.8821 0 14.6916Z" fill="url(#paint2_linear)"/>
    <path d="M1.66992 14.5447V43.2215C1.66992 44.6713 2.69591 45.8525 3.97389 45.8741L55.5696 46.5972C56.8366 46.6188 57.8753 45.4625 57.8799 44.0252L57.9663 15.6045C57.9696 14.5769 57.2477 13.7348 56.3419 13.7098L3.5175 12.4993C2.50442 12.4712 1.66992 13.3952 1.66992 14.5447Z" fill="#91B3FA"/>
    <path d="M58.2677 47.7725C58.2672 47.7725 58.2668 47.7725 58.2664 47.7725L1.66791 46.6786C1.62835 46.6779 1.59703 46.6409 1.59767 46.596C1.5983 46.5512 1.63131 46.5168 1.67045 46.5164L58.2689 47.6103C58.3085 47.611 58.3398 47.6479 58.3392 47.6928C58.3385 47.737 58.3066 47.7725 58.2677 47.7725Z" fill="#91B3FA"/>
    <path d="M30.5276 49.1085C30.1634 49.1085 29.8672 48.7725 29.8672 48.3595C29.8672 47.9465 30.1634 47.6105 30.5276 47.6105C30.8917 47.6105 31.1879 47.9465 31.1879 48.3595C31.1881 48.7723 30.8917 49.1085 30.5276 49.1085ZM30.5276 47.7725C30.2423 47.7725 30.0102 48.0357 30.0102 48.3593C30.0102 48.6828 30.2423 48.946 30.5276 48.946C30.8128 48.946 31.0449 48.6828 31.0449 48.3593C31.0449 48.0357 30.8128 47.7725 30.5276 47.7725Z" fill="#91B3FA"/>
    <path d="M42.2237 60.0001H20.2246C19.6269 60.0001 19.1781 59.5174 19.2936 58.9991L19.5759 57.7329C19.6607 57.352 20.0301 57.0724 20.4688 57.057L41.6768 56.3064C42.135 56.29 42.5409 56.566 42.6407 56.9618L43.1496 58.9787C43.2821 59.5028 42.8312 60.0001 42.2237 60.0001Z" fill="url(#paint3_linear)"/>
    <path d="M32.0657 57.3997C32.0267 57.3997 31.9948 57.3641 31.9942 57.3197C31.9935 57.2749 32.025 57.2381 32.0646 57.2374L32.9734 57.2223C33.0112 57.2225 33.0453 57.2576 33.0459 57.3022C33.0466 57.3471 33.015 57.3838 32.9755 57.3845L32.0667 57.3997H32.0657Z" fill="#91B3FA"/>
    <path d="M20.1069 59.3016C20.1031 59.3016 20.0993 59.3014 20.0955 59.3007C20.0566 59.2937 20.0299 59.2519 20.036 59.2078L20.1657 58.2867C20.2353 57.7918 20.6065 57.4275 21.0483 57.4201L30.6873 57.2603H30.6884C30.7273 57.2603 30.7592 57.2958 30.7599 57.3402C30.7605 57.385 30.729 57.4218 30.6894 57.4225L21.0504 57.5823C20.6784 57.5886 20.3657 57.8955 20.3071 58.3121L20.1774 59.2332C20.1719 59.2733 20.1414 59.3016 20.1069 59.3016Z" fill="#91B3FA"/>
    <g opacity="0.53">
    <path opacity="0.53" d="M31.6716 16.5492H30.3145V43.6984H31.6716V16.5492Z" fill="white"/>
    <path opacity="0.53" d="M33.9392 16.5492H32.582V43.6984H33.9392V16.5492Z" fill="white"/>
    <path opacity="0.53" d="M36.2067 16.5492H34.8496V43.6984H36.2067V16.5492Z" fill="white"/>
    <path opacity="0.53" d="M38.4743 16.5492H37.1172V43.6984H38.4743V16.5492Z" fill="white"/>
    <path opacity="0.53" d="M40.7419 16.5492H39.3848V43.6984H40.7419V16.5492Z" fill="white"/>
    <path opacity="0.53" d="M43.0094 16.5492H41.6523V43.6984H43.0094V16.5492Z" fill="white"/>
    <path opacity="0.53" d="M45.277 16.5492H43.9199V43.6984H45.277V16.5492Z" fill="white"/>
    </g>
    <path d="M31.6716 29.4902H30.3145V43.6984H31.6716V29.4902Z" fill="url(#paint4_linear)"/>
    <path d="M33.9392 34.3733H32.582V43.6984H33.9392V34.3733Z" fill="url(#paint5_linear)"/>
    <path d="M36.2067 22.3049H34.8496V43.6984H36.2067V22.3049Z" fill="url(#paint6_linear)"/>
    <path d="M38.4743 38.5591H37.1172V43.6987H38.4743V38.5591Z" fill="url(#paint7_linear)"/>
    <path d="M40.7419 25.1652H39.3848V43.6985H40.7419V25.1652Z" fill="url(#paint8_linear)"/>
    <path d="M43.0094 28.374H41.6523V43.6984H43.0094V28.374Z" fill="url(#paint9_linear)"/>
    <path d="M45.277 31.8621H43.9199V43.6984H45.277V31.8621Z" fill="url(#paint10_linear)"/>
    <mask id="mask0" mask-type="alpha" maskUnits="userSpaceOnUse" x="4" y="15" width="8" height="8">
    <path opacity="0.57" d="M7.9315 15.3086C6.1108 15.3086 4.63477 16.9828 4.63477 19.0479C4.63477 21.113 6.1108 22.7872 7.9315 22.7872C9.75221 22.7872 11.2282 21.113 11.2282 19.0479C11.2282 16.9828 9.75221 15.3086 7.9315 15.3086ZM7.9315 21.1783C6.89409 21.1783 6.05324 20.2246 6.05324 19.0479C6.05324 17.8712 6.89409 16.9175 7.9315 16.9175C8.96891 16.9175 9.80976 17.8712 9.80976 19.0479C9.80976 20.2246 8.9687 21.1783 7.9315 21.1783Z" fill="white"/>
    </mask>
    <g mask="url(#mask0)">
    <path opacity="0.7" d="M7.9315 15.3086C6.1108 15.3086 4.63477 16.9828 4.63477 19.0479C4.63477 21.113 6.1108 22.7872 7.9315 22.7872C9.75221 22.7872 11.2282 21.113 11.2282 19.0479C11.2282 16.9828 9.75221 15.3086 7.9315 15.3086ZM7.9315 21.1783C6.89409 21.1783 6.05324 20.2246 6.05324 19.0479C6.05324 17.8712 6.89409 16.9175 7.9315 16.9175C8.96891 16.9175 9.80976 17.8712 9.80976 19.0479C9.80976 20.2246 8.9687 21.1783 7.9315 21.1783Z" fill="white"/>
    <path d="M13.1212 18.2255H3.32812V22.9262H13.1212V18.2255Z" fill="url(#paint11_linear)"/>
    </g>
    <mask id="mask1" mask-type="alpha" maskUnits="userSpaceOnUse" x="12" y="15" width="8" height="8">
    <path opacity="0.57" d="M15.9686 15.3086C14.1479 15.3086 12.6719 16.9828 12.6719 19.0479C12.6719 21.113 14.1479 22.7872 15.9686 22.7872C17.7893 22.7872 19.2654 21.113 19.2654 19.0479C19.2656 16.9828 17.7895 15.3086 15.9686 15.3086ZM15.9686 21.1783C14.9312 21.1783 14.0904 20.2246 14.0904 19.0479C14.0904 17.8712 14.9312 16.9175 15.9686 16.9175C17.006 16.9175 17.8469 17.8712 17.8469 19.0479C17.8469 20.2246 17.006 21.1783 15.9686 21.1783Z" fill="white"/>
    </mask>
    <g mask="url(#mask1)">
    <path opacity="0.7" d="M15.9686 15.3086C14.1479 15.3086 12.6719 16.9828 12.6719 19.0479C12.6719 21.113 14.1479 22.7872 15.9686 22.7872C17.7893 22.7872 19.2654 21.113 19.2654 19.0479C19.2656 16.9828 17.7895 15.3086 15.9686 15.3086ZM15.9686 21.1783C14.9312 21.1783 14.0904 20.2246 14.0904 19.0479C14.0904 17.8712 14.9312 16.9175 15.9686 16.9175C17.006 16.9175 17.8469 17.8712 17.8469 19.0479C17.8469 20.2246 17.006 21.1783 15.9686 21.1783Z" fill="white"/>
    <path d="M21.1583 16.4087H11.3652V22.9264H21.1583V16.4087Z" fill="url(#paint12_linear)"/>
    </g>
    <mask id="mask2" mask-type="alpha" maskUnits="userSpaceOnUse" x="20" y="15" width="8" height="8">
    <path opacity="0.57" d="M24.0038 15.3086C22.1831 15.3086 20.707 16.9828 20.707 19.0479C20.707 21.113 22.1831 22.7872 24.0038 22.7872C25.8245 22.7872 27.3005 21.113 27.3005 19.0479C27.3005 16.9828 25.8245 15.3086 24.0038 15.3086ZM24.0038 21.1783C22.9664 21.1783 22.1255 20.2246 22.1255 19.0479C22.1255 17.8712 22.9664 16.9175 24.0038 16.9175C25.0412 16.9175 25.882 17.8712 25.882 19.0479C25.882 20.2246 25.041 21.1783 24.0038 21.1783Z" fill="white"/>
    </mask>
    <g mask="url(#mask2)">
    <path opacity="0.7" d="M24.0038 15.3086C22.1831 15.3086 20.707 16.9828 20.707 19.0479C20.707 21.113 22.1831 22.7872 24.0038 22.7872C25.8245 22.7872 27.3005 21.113 27.3005 19.0479C27.3005 16.9828 25.8245 15.3086 24.0038 15.3086ZM24.0038 21.1783C22.9664 21.1783 22.1255 20.2246 22.1255 19.0479C22.1255 17.8712 22.9664 16.9175 24.0038 16.9175C25.0412 16.9175 25.882 17.8712 25.882 19.0479C25.882 20.2246 25.041 21.1783 24.0038 21.1783Z" fill="white"/>
    <path d="M29.1935 20.5759H19.4004V22.9262H29.1935V20.5759Z" fill="url(#paint13_linear)"/>
    </g>
    <path opacity="0.44" d="M26.5381 43.8486L5.39039 43.6684C4.97314 43.6648 4.63672 43.2803 4.63672 42.8071V30.483C4.63672 30.0074 4.97674 29.6217 5.3961 29.6217H26.544C26.9634 29.6217 27.3034 30.0074 27.3034 30.483V42.9873C27.3032 43.4656 26.9596 43.8522 26.5381 43.8486Z" fill="white"/>
    <path opacity="0.44" d="M23.2582 35.1859L20.5389 31.9249L16.6398 36.7353L13.8885 33.368L11.3082 36.6765L9.32945 33.9497L5.42969 38.5549V41.885C5.42969 42.3252 5.74262 42.683 6.13068 42.6861L25.7996 42.8536C26.1917 42.857 26.5112 42.4972 26.5112 42.0525V32.9931L23.2582 35.1859Z" fill="white"/>
    <path d="M23.345 35.0955H23.2734V42.8539H23.345V35.0955Z" fill="white"/>
    <path d="M20.5735 31.9249H20.502V42.809H20.5735V31.9249Z" fill="white"/>
    <path d="M16.675 36.6765H16.6035V42.7756H16.675V36.6765Z" fill="white"/>
    <path d="M13.9973 33.4872H13.9258V42.7756H13.9973V33.4872Z" fill="white"/>
    <path d="M11.343 36.5776H11.2715V42.7757H11.343V36.5776Z" fill="white"/>
    <path d="M9.4055 33.7185H9.33398V42.7163H9.4055V33.7185Z" fill="white"/>
    <path d="M9.37096 34.3964C9.70096 34.3964 9.96848 34.0929 9.96848 33.7186C9.96848 33.3443 9.70096 33.0409 9.37096 33.0409C9.04096 33.0409 8.77344 33.3443 8.77344 33.7186C8.77344 34.0929 9.04096 34.3964 9.37096 34.3964Z" fill="url(#paint14_linear)"/>
    <path d="M11.7012 36.5775C11.7012 36.824 11.5249 37.0239 11.3076 37.0239C11.0903 37.0239 10.9141 36.824 10.9141 36.5775C10.9141 36.331 11.0903 36.1311 11.3076 36.1311C11.5249 36.1311 11.7012 36.331 11.7012 36.5775Z" fill="url(#paint15_linear)"/>
    <path d="M14.3555 33.4873C14.3555 33.7338 14.1792 33.9337 13.9619 33.9337C13.7446 33.9337 13.5684 33.7338 13.5684 33.4873C13.5684 33.2408 13.7446 33.0409 13.9619 33.0409C14.1792 33.0409 14.3555 33.2408 14.3555 33.4873Z" fill="url(#paint16_linear)"/>
    <path d="M17.0332 36.6765C17.0332 36.9229 16.857 37.1229 16.6396 37.1229C16.4221 37.1229 16.2461 36.9229 16.2461 36.6765C16.2461 36.43 16.4223 36.2301 16.6396 36.2301C16.857 36.2301 17.0332 36.43 17.0332 36.6765Z" fill="url(#paint17_linear)"/>
    <path d="M20.9316 31.9249C20.9316 32.1714 20.7554 32.3713 20.5381 32.3713C20.3208 32.3713 20.1445 32.1714 20.1445 31.9249C20.1445 31.6784 20.3208 31.4785 20.5381 31.4785C20.7554 31.4785 20.9316 31.6784 20.9316 31.9249Z" fill="url(#paint18_linear)"/>
    <path d="M23.7031 35.0954C23.7031 35.3419 23.5269 35.5418 23.3096 35.5418C23.0923 35.5418 22.916 35.3419 22.916 35.0954C22.916 34.849 23.0923 34.649 23.3096 34.649C23.5269 34.6488 23.7031 34.8487 23.7031 35.0954Z" fill="url(#paint19_linear)"/>
    <g opacity="0.48">
    <path opacity="0.48" d="M10.7461 27.5701H4.94881C4.70633 27.5701 4.50977 27.7253 4.50977 27.9169C4.50977 28.1084 4.70633 28.2636 4.94881 28.2636H10.7461C10.9886 28.2636 11.1851 28.1084 11.1851 27.9169C11.1851 27.7253 10.9886 27.5701 10.7461 27.5701Z" fill="white"/>
    <path opacity="0.48" d="M10.7461 26.0342H4.94881C4.70633 26.0342 4.50977 26.1895 4.50977 26.381C4.50977 26.5725 4.70633 26.7278 4.94881 26.7278H10.7461C10.9886 26.7278 11.1851 26.5725 11.1851 26.381C11.1851 26.1895 10.9886 26.0342 10.7461 26.0342Z" fill="white"/>
    <path opacity="0.48" d="M10.7461 24.4984H4.94881C4.70633 24.4984 4.50977 24.6537 4.50977 24.8452C4.50977 25.0367 4.70633 25.192 4.94881 25.192H10.7461C10.9886 25.192 11.1851 25.0367 11.1851 24.8452C11.1851 24.6537 10.9886 24.4984 10.7461 24.4984Z" fill="white"/>
    </g>
    <g opacity="0.48">
    <path opacity="0.48" d="M18.8047 27.5701H13.0074C12.7649 27.5701 12.5684 27.7253 12.5684 27.9169C12.5684 28.1084 12.7649 28.2636 13.0074 28.2636H18.8047C19.0472 28.2636 19.2437 28.1084 19.2437 27.9169C19.2437 27.7253 19.0472 27.5701 18.8047 27.5701Z" fill="white"/>
    <path opacity="0.48" d="M18.8047 26.0342H13.0074C12.7649 26.0342 12.5684 26.1895 12.5684 26.381C12.5684 26.5725 12.7649 26.7278 13.0074 26.7278H18.8047C19.0472 26.7278 19.2437 26.5725 19.2437 26.381C19.2437 26.1895 19.0472 26.0342 18.8047 26.0342Z" fill="white"/>
    <path opacity="0.48" d="M18.8047 24.4984H13.0074C12.7649 24.4984 12.5684 24.6537 12.5684 24.8452C12.5684 25.0367 12.7649 25.192 13.0074 25.192H18.8047C19.0472 25.192 19.2437 25.0367 19.2437 24.8452C19.2437 24.6537 19.0472 24.4984 18.8047 24.4984Z" fill="white"/>
    </g>
    <g opacity="0.48">
    <path opacity="0.48" d="M26.8633 27.5701H21.066C20.8235 27.5701 20.627 27.7253 20.627 27.9169C20.627 28.1084 20.8235 28.2636 21.066 28.2636H26.8633C27.1058 28.2636 27.3023 28.1084 27.3023 27.9169C27.3023 27.7253 27.1058 27.5701 26.8633 27.5701Z" fill="white"/>
    <path opacity="0.48" d="M26.8633 26.0342H21.066C20.8235 26.0342 20.627 26.1895 20.627 26.381C20.627 26.5725 20.8235 26.7278 21.066 26.7278H26.8633C27.1058 26.7278 27.3023 26.5725 27.3023 26.381C27.3023 26.1895 27.1058 26.0342 26.8633 26.0342Z" fill="white"/>
    <path opacity="0.48" d="M26.8633 24.4984H21.066C20.8235 24.4984 20.627 24.6537 20.627 24.8452C20.627 25.0367 20.8235 25.192 21.066 25.192H26.8633C27.1058 25.192 27.3023 25.0367 27.3023 24.8452C27.3023 24.6537 27.1058 24.4984 26.8633 24.4984Z" fill="white"/>
    </g>
    <path d="M51.3895 32.0559C52.871 32.0559 54.072 30.6937 54.072 29.0133C54.072 27.3329 52.871 25.9707 51.3895 25.9707C49.908 25.9707 48.707 27.3329 48.707 29.0133C48.707 30.6937 49.908 32.0559 51.3895 32.0559Z" fill="url(#paint20_linear)"/>
    <path d="M52.9838 28.3701C53.0668 28.5991 53.1129 28.8499 53.1129 29.1127C53.1129 30.1919 52.3414 31.0669 51.3899 31.0669C50.4384 31.0669 49.667 30.1919 49.667 29.1127C49.667 28.0334 50.4384 27.1584 51.3899 27.1584C51.4191 27.1584 51.4481 27.1594 51.4769 27.1608V26.6655C51.4481 26.6643 51.4191 26.6633 51.3899 26.6633C50.1972 26.6633 49.2305 27.7598 49.2305 29.1127C49.2305 30.4655 50.1972 31.562 51.3899 31.562C52.5827 31.562 53.5494 30.4655 53.5494 29.1127C53.5494 28.7796 53.4906 28.4621 53.3846 28.1726L52.9838 28.3701Z" fill="#91B3FA"/>
    <path opacity="0.5" d="M53.5945 33.3444H49.2234C48.9489 33.3444 48.7266 33.5966 48.7266 33.9079C48.7266 34.2192 48.9489 34.4714 49.2234 34.4714H53.5945C53.869 34.4714 54.0913 34.2192 54.0913 33.9079C54.0913 33.5968 53.8688 33.3444 53.5945 33.3444Z" fill="white"/>
    <path d="M51.3778 22.277C52.8593 22.277 54.0603 20.9148 54.0603 19.2344C54.0603 17.554 52.8593 16.1918 51.3778 16.1918C49.8963 16.1918 48.6953 17.554 48.6953 19.2344C48.6953 20.9148 49.8963 22.277 51.3778 22.277Z" fill="url(#paint21_linear)"/>
    <path d="M52.2904 20.9873C52.0247 21.1776 51.71 21.2882 51.3723 21.2882C50.4208 21.2882 49.6494 20.4132 49.6494 19.334C49.6494 18.2547 50.4208 17.3797 51.3723 17.3797C51.4015 17.3797 51.4305 17.3807 51.4593 17.3821V16.8868C51.4305 16.8856 51.4015 16.8846 51.3723 16.8846C50.1796 16.8846 49.2129 17.9812 49.2129 19.334C49.2129 20.6868 50.1796 21.7833 51.3723 21.7833C51.7885 21.7833 52.1772 21.6496 52.5069 21.4183L52.2904 20.9873Z" fill="#91B3FA"/>
    <path opacity="0.5" d="M53.6063 23.5656H49.2351C48.9607 23.5656 48.7383 23.8178 48.7383 24.129C48.7383 24.4403 48.9607 24.6925 49.2351 24.6925H53.6063C53.8807 24.6925 54.1031 24.4403 54.1031 24.129C54.1031 23.818 53.8807 23.5656 53.6063 23.5656Z" fill="white"/>
    <path opacity="0.91" d="M53.2958 40.9934C54.3434 39.8052 54.3434 37.8787 53.2958 36.6905C52.2483 35.5023 50.5498 35.5023 49.5023 36.6905C48.4547 37.8787 48.4547 39.8052 49.5023 40.9934C50.5498 42.1816 52.2483 42.1816 53.2958 40.9934Z" fill="white"/>
    <path d="M52.8597 39.941C52.5495 40.4574 52.0271 40.7965 51.4349 40.7965C50.4833 40.7965 49.7119 39.9215 49.7119 38.8423C49.7119 37.7631 50.4833 36.888 51.4349 36.888C51.4641 36.888 51.493 36.889 51.5218 36.8904V36.3951C51.493 36.3939 51.4641 36.3929 51.4349 36.3929C50.2421 36.3929 49.2754 37.4895 49.2754 38.8423C49.2754 40.1951 50.2421 41.2916 51.4349 41.2916C52.1727 41.2916 52.8239 40.8719 53.2135 40.2316L52.8597 39.941Z" fill="url(#paint22_linear)"/>
    <path opacity="0.5" d="M49.2136 44.2006H53.5848C53.8592 44.2006 54.0816 43.9484 54.0816 43.6371C54.0816 43.3258 53.8592 43.0736 53.5848 43.0736H49.2136C48.9392 43.0736 48.7168 43.3258 48.7168 43.6371C48.7168 43.9484 48.9392 44.2006 49.2136 44.2006Z" fill="white"/>
    <defs>
    <linearGradient id="paint0_linear" x1="62.3327" y1="69.0955" x2="20.2418" y2="27.948" gradientUnits="userSpaceOnUse">
    <stop stop-color="#DAE3FE"/>
    <stop offset="1" stop-color="#E9EFFD"/>
    </linearGradient>
    <linearGradient id="paint1_linear" x1="33.9264" y1="43.4956" x2="26.7415" y2="70.4576" gradientUnits="userSpaceOnUse">
    <stop stop-color="#09005D"/>
    <stop offset="1" stop-color="#1A0F91"/>
    </linearGradient>
    <linearGradient id="paint2_linear" x1="31.1141" y1="-1.68379" x2="28.6845" y2="49.3955" gradientUnits="userSpaceOnUse">
    <stop stop-color="#09005D"/>
    <stop offset="1" stop-color="#1A0F91"/>
    </linearGradient>
    <linearGradient id="paint3_linear" x1="30.9487" y1="40.0997" x2="31.3227" y2="60.2106" gradientUnits="userSpaceOnUse">
    <stop stop-color="#09005D"/>
    <stop offset="1" stop-color="#1A0F91"/>
    </linearGradient>
    <linearGradient id="paint4_linear" x1="33.2906" y1="31.508" x2="40.6142" y2="18.9054" gradientUnits="userSpaceOnUse">
    <stop stop-color="#4F52FF"/>
    <stop offset="1" stop-color="#4042E2"/>
    </linearGradient>
    <linearGradient id="paint5_linear" x1="35.9603" y1="33.0593" x2="43.2839" y2="20.4566" gradientUnits="userSpaceOnUse">
    <stop stop-color="#4F52FF"/>
    <stop offset="1" stop-color="#4042E2"/>
    </linearGradient>
    <linearGradient id="paint6_linear" x1="35.5973" y1="32.8485" x2="42.921" y2="20.246" gradientUnits="userSpaceOnUse">
    <stop stop-color="#4F52FF"/>
    <stop offset="1" stop-color="#4042E2"/>
    </linearGradient>
    <linearGradient id="paint7_linear" x1="40.3011" y1="35.582" x2="47.6247" y2="22.9796" gradientUnits="userSpaceOnUse">
    <stop stop-color="#4F52FF"/>
    <stop offset="1" stop-color="#4042E2"/>
    </linearGradient>
    <linearGradient id="paint8_linear" x1="39.7013" y1="35.2333" x2="47.0249" y2="22.6306" gradientUnits="userSpaceOnUse">
    <stop stop-color="#4F52FF"/>
    <stop offset="1" stop-color="#4042E2"/>
    </linearGradient>
    <linearGradient id="paint9_linear" x1="42.0714" y1="36.6106" x2="49.3951" y2="24.0082" gradientUnits="userSpaceOnUse">
    <stop stop-color="#4F52FF"/>
    <stop offset="1" stop-color="#4042E2"/>
    </linearGradient>
    <linearGradient id="paint10_linear" x1="44.4915" y1="38.0169" x2="51.8152" y2="25.4144" gradientUnits="userSpaceOnUse">
    <stop stop-color="#4F52FF"/>
    <stop offset="1" stop-color="#4042E2"/>
    </linearGradient>
    <linearGradient id="paint11_linear" x1="22.1642" y1="-2.85693" x2="0.627736" y2="25.2839" gradientUnits="userSpaceOnUse">
    <stop stop-color="#FF928E"/>
    <stop offset="1" stop-color="#FE7062"/>
    </linearGradient>
    <linearGradient id="paint12_linear" x1="27.3159" y1="1.08529" x2="5.77941" y2="29.2261" gradientUnits="userSpaceOnUse">
    <stop stop-color="#FF928E"/>
    <stop offset="1" stop-color="#FE7062"/>
    </linearGradient>
    <linearGradient id="paint13_linear" x1="33.6885" y1="5.96353" x2="12.152" y2="34.1043" gradientUnits="userSpaceOnUse">
    <stop stop-color="#FF928E"/>
    <stop offset="1" stop-color="#FE7062"/>
    </linearGradient>
    <linearGradient id="paint14_linear" x1="9.87079" y1="32.0049" x2="6.73378" y2="40.3663" gradientUnits="userSpaceOnUse">
    <stop stop-color="#FEBBBA"/>
    <stop offset="1" stop-color="#FF928E"/>
    </linearGradient>
    <linearGradient id="paint15_linear" x1="11.6367" y1="35.4486" x2="9.57013" y2="40.9569" gradientUnits="userSpaceOnUse">
    <stop stop-color="#FEBBBA"/>
    <stop offset="1" stop-color="#FF928E"/>
    </linearGradient>
    <linearGradient id="paint16_linear" x1="14.2911" y1="32.3584" x2="12.2246" y2="37.8666" gradientUnits="userSpaceOnUse">
    <stop stop-color="#FEBBBA"/>
    <stop offset="1" stop-color="#FF928E"/>
    </linearGradient>
    <linearGradient id="paint17_linear" x1="16.9689" y1="35.5476" x2="14.9024" y2="41.0558" gradientUnits="userSpaceOnUse">
    <stop stop-color="#FEBBBA"/>
    <stop offset="1" stop-color="#FF928E"/>
    </linearGradient>
    <linearGradient id="paint18_linear" x1="20.8672" y1="30.796" x2="18.8007" y2="36.3041" gradientUnits="userSpaceOnUse">
    <stop stop-color="#FEBBBA"/>
    <stop offset="1" stop-color="#FF928E"/>
    </linearGradient>
    <linearGradient id="paint19_linear" x1="23.6386" y1="33.9664" x2="21.5721" y2="39.4746" gradientUnits="userSpaceOnUse">
    <stop stop-color="#4F52FF"/>
    <stop offset="1" stop-color="#4042E2"/>
    </linearGradient>
    <linearGradient id="paint20_linear" x1="48.7072" y1="29.0132" x2="54.072" y2="29.0132" gradientUnits="userSpaceOnUse">
    <stop stop-color="#DAE3FE"/>
    <stop offset="1" stop-color="#E9EFFD"/>
    </linearGradient>
    <linearGradient id="paint21_linear" x1="48.6954" y1="19.2343" x2="54.0602" y2="19.2343" gradientUnits="userSpaceOnUse">
    <stop stop-color="#DAE3FE"/>
    <stop offset="1" stop-color="#E9EFFD"/>
    </linearGradient>
    <linearGradient id="paint22_linear" x1="54.5017" y1="35.5407" x2="45.2201" y2="43.3066" gradientUnits="userSpaceOnUse">
    <stop stop-color="#FDF53F"/>
    <stop offset="1" stop-color="#D93C65"/>
    </linearGradient>
    </defs>
</svg>