<svg width="16" height="20" viewBox="0 0 16 20" fill="none" xmlns="http://www.w3.org/2000/svg">
    <path d="M9.25002 5.3125V0H0.991074C0.441854 0 0 0.417969 0 0.9375V19.0625C0 19.582 0.441854 20 0.991074 20H14.8661C15.4153 20 15.8572 19.582 15.8572 19.0625V6.25H10.2411C9.696 6.25 9.25002 5.82812 9.25002 5.3125ZM15.5681 4.10156L11.5254 0.273438C11.3395 0.0976562 11.0876 0 10.8234 0H10.5715V5H15.8572V4.76172C15.8572 4.51562 15.7539 4.27734 15.5681 4.10156Z" fill="#57A557"/>
    <path d="M4.81145 14.04C4.55145 14.04 4.32312 13.99 4.12645 13.89C3.92978 13.7867 3.77812 13.6433 3.67145 13.46C3.56478 13.2767 3.51145 13.065 3.51145 12.825V11.67C3.51145 11.43 3.56478 11.2183 3.67145 11.035C3.77812 10.8517 3.92978 10.71 4.12645 10.61C4.32312 10.51 4.55145 10.46 4.81145 10.46C5.06812 10.46 5.29312 10.5083 5.48645 10.605C5.68312 10.6983 5.83478 10.8333 5.94145 11.01C6.05145 11.1833 6.10645 11.385 6.10645 11.615C6.10645 11.645 6.08645 11.6633 6.04645 11.67L5.46145 11.705H5.45145C5.41812 11.705 5.40145 11.6867 5.40145 11.65C5.40145 11.4733 5.34645 11.3317 5.23645 11.225C5.12978 11.1183 4.98812 11.065 4.81145 11.065C4.63145 11.065 4.48645 11.1183 4.37645 11.225C4.26978 11.3317 4.21645 11.4733 4.21645 11.65V12.855C4.21645 13.0283 4.26978 13.1683 4.37645 13.275C4.48645 13.3817 4.63145 13.435 4.81145 13.435C4.98812 13.435 5.12978 13.3817 5.23645 13.275C5.34645 13.1683 5.40145 13.0283 5.40145 12.855C5.40145 12.8183 5.42145 12.8 5.46145 12.8L6.04645 12.825C6.06312 12.825 6.07645 12.83 6.08645 12.84C6.09978 12.85 6.10645 12.8617 6.10645 12.875C6.10645 13.105 6.05145 13.3083 5.94145 13.485C5.83478 13.6617 5.68312 13.7983 5.48645 13.895C5.29312 13.9917 5.06812 14.04 4.81145 14.04ZM7.82344 14.04C7.55678 14.04 7.32344 13.9983 7.12344 13.915C6.92344 13.8283 6.76844 13.7067 6.65844 13.55C6.55178 13.39 6.49844 13.205 6.49844 12.995V12.885C6.49844 12.8683 6.50344 12.855 6.51344 12.845C6.52678 12.8317 6.54178 12.825 6.55844 12.825H7.12844C7.14511 12.825 7.15844 12.8317 7.16844 12.845C7.18178 12.855 7.18844 12.8683 7.18844 12.885V12.96C7.18844 13.0933 7.25011 13.2067 7.37344 13.3C7.49678 13.39 7.66344 13.435 7.87344 13.435C8.05011 13.435 8.18178 13.3983 8.26844 13.325C8.35511 13.2483 8.39844 13.155 8.39844 13.045C8.39844 12.965 8.37178 12.8983 8.31844 12.845C8.26511 12.7883 8.19178 12.74 8.09844 12.7C8.00844 12.6567 7.86344 12.5983 7.66344 12.525C7.44011 12.4483 7.25011 12.37 7.09344 12.29C6.94011 12.21 6.81011 12.1017 6.70344 11.965C6.60011 11.825 6.54844 11.6533 6.54844 11.45C6.54844 11.25 6.60011 11.075 6.70344 10.925C6.80678 10.775 6.95011 10.66 7.13344 10.58C7.31678 10.5 7.52844 10.46 7.76844 10.46C8.02178 10.46 8.24678 10.505 8.44344 10.595C8.64344 10.685 8.79844 10.8117 8.90844 10.975C9.02178 11.135 9.07844 11.3217 9.07844 11.535V11.61C9.07844 11.6267 9.07178 11.6417 9.05844 11.655C9.04844 11.665 9.03511 11.67 9.01844 11.67H8.44344C8.42678 11.67 8.41178 11.665 8.39844 11.655C8.38844 11.6417 8.38344 11.6267 8.38344 11.61V11.57C8.38344 11.43 8.32511 11.3117 8.20844 11.215C8.09511 11.115 7.93844 11.065 7.73844 11.065C7.58178 11.065 7.45844 11.0983 7.36844 11.165C7.28178 11.2317 7.23844 11.3233 7.23844 11.44C7.23844 11.5233 7.26344 11.5933 7.31344 11.65C7.36678 11.7067 7.44344 11.7583 7.54344 11.805C7.64678 11.8483 7.80511 11.9083 8.01844 11.985C8.25511 12.0717 8.44011 12.1483 8.57344 12.215C8.71011 12.2817 8.83178 12.3817 8.93844 12.515C9.04844 12.645 9.10344 12.815 9.10344 13.025C9.10344 13.3383 8.98844 13.5867 8.75844 13.77C8.52844 13.95 8.21678 14.04 7.82344 14.04ZM10.4197 14C10.3863 14 10.3647 13.9833 10.3547 13.95L9.32465 10.57L9.31965 10.55C9.31965 10.5167 9.33799 10.5 9.37465 10.5H10.0047C10.0413 10.5 10.0647 10.5167 10.0747 10.55L10.7397 12.99C10.743 13 10.748 13.005 10.7547 13.005C10.7613 13.005 10.7663 13 10.7697 12.99L11.4247 10.55C11.4347 10.5167 11.458 10.5 11.4947 10.5H12.1097C12.1297 10.5 12.1447 10.5067 12.1547 10.52C12.1647 10.5333 12.1663 10.55 12.1597 10.57L11.1147 13.95C11.1047 13.9833 11.083 14 11.0497 14H10.4197Z" fill="white"/>
</svg>