<svg width="60" height="60" viewBox="0 0 60 60" fill="none" xmlns="http://www.w3.org/2000/svg">
<circle cx="30" cy="30" r="30" fill="#072773"/>
<g clip-path="url(#clip0)">
<path d="M33.3099 27.9741H38.7762C38.8614 27.9741 38.9432 27.9403 39.0035 27.88C39.0638 27.8197 39.0977 27.7379 39.0977 27.6526V21.5433C39.096 20.0088 38.4857 18.5376 37.4006 17.4526C36.3156 16.3675 34.8444 15.7572 33.3099 15.7555H20.4482C18.9137 15.7572 17.4425 16.3675 16.3575 17.4526C15.2724 18.5376 14.6621 20.0088 14.6604 21.5433V26.688C14.6604 28.223 15.2702 29.6951 16.3556 30.7805C17.441 31.866 18.9132 32.4757 20.4482 32.4757H21.0913V36.9774C21.0914 37.1081 21.1314 37.2357 21.2059 37.3431C21.2804 37.4505 21.3859 37.5327 21.5083 37.5786C21.6306 37.6246 21.7641 37.6322 21.8909 37.6003C22.0177 37.5685 22.1318 37.4988 22.218 37.4005L26.4315 32.5864C26.4614 32.5515 26.4985 32.5236 26.5402 32.5045C26.582 32.4854 26.6274 32.4756 26.6733 32.4757H27.9594C28.0349 32.476 28.1081 32.4495 28.166 32.401C28.2239 32.3525 28.2628 32.2852 28.2758 32.2108C28.4858 31.0268 29.1048 29.9541 30.0248 29.1798C30.9448 28.4056 32.1075 27.9789 33.3099 27.9741Z" fill="white"/>
<path d="M45.5283 33.1188C45.5283 32.6966 45.4451 32.2784 45.2836 31.8883C45.122 31.4982 44.8851 31.1437 44.5865 30.8452C44.288 30.5466 43.9335 30.3097 43.5434 30.1481C43.1533 29.9866 42.7351 29.9034 42.3129 29.9034H33.3097C32.4569 29.9034 31.639 30.2421 31.036 30.8452C30.433 31.4482 30.0942 32.266 30.0942 33.1188V36.9773C30.0942 37.8301 30.433 38.648 31.036 39.251C31.639 39.854 32.4569 40.1928 33.3097 40.1928H35.6158L39.2852 43.8635C39.3752 43.9537 39.4899 44.0151 39.6148 44.04C39.7397 44.0649 39.8691 44.0522 39.9868 44.0034C40.1044 43.9547 40.205 43.8721 40.2756 43.7661C40.3463 43.6601 40.3839 43.5356 40.3836 43.4082V40.1928H42.3129C42.7351 40.1928 43.1533 40.1096 43.5434 39.948C43.9335 39.7864 44.288 39.5496 44.5865 39.251C44.8851 38.9524 45.122 38.5979 45.2836 38.2078C45.4451 37.8177 45.5283 37.3996 45.5283 36.9773V33.1188Z" fill="white"/>
</g>
<defs>
<clipPath id="clip0">
<rect width="30.8682" height="30.8682" fill="white" transform="translate(14.6604 14.4694)"/>
</clipPath>
</defs>
</svg>
