<svg width="20" height="17" viewBox="0 0 20 17" fill="none" xmlns="http://www.w3.org/2000/svg">
<path d="M10.929 17C10.768 17 10.6136 16.936 10.4998 16.8222C10.3859 16.7084 10.322 16.554 10.322 16.393C10.322 16.232 10.3859 16.0776 10.4998 15.9638C10.6136 15.85 10.768 15.786 10.929 15.786C12.3308 15.7858 13.7027 15.3812 14.8803 14.6208C16.0579 13.8603 16.9911 12.7763 17.5681 11.4988C18.145 10.2213 18.3412 8.80445 18.133 7.41821C17.9249 6.03198 17.3213 4.73522 16.3947 3.68344C15.468 2.63166 14.2576 1.86952 12.9086 1.48843C11.5596 1.10733 10.1294 1.12347 8.78935 1.53489C7.44932 1.94631 6.25641 2.73555 5.3537 3.80797C4.45099 4.88038 3.8768 6.19043 3.69999 7.581L5.03499 6.25C5.09066 6.19071 5.15767 6.14321 5.23204 6.11032C5.30642 6.07742 5.38665 6.05981 5.46796 6.05853C5.54928 6.05725 5.63002 6.07232 5.7054 6.10284C5.78077 6.13337 5.84925 6.17873 5.90675 6.23624C5.96426 6.29375 6.00962 6.36222 6.04015 6.4376C6.07068 6.51298 6.08575 6.59372 6.08447 6.67503C6.08318 6.75635 6.06557 6.83658 6.03268 6.91095C5.99979 6.98533 5.95229 7.05234 5.89299 7.108L3.46499 9.536C3.40767 9.59299 3.33972 9.63817 3.26499 9.669L3.24299 9.677C3.10787 9.72735 2.95912 9.72735 2.82399 9.677L2.80599 9.671C2.73087 9.64048 2.6628 9.59487 2.60599 9.537L0.177995 7.108C0.0928467 7.02316 0.0348026 6.91496 0.011219 6.7971C-0.0123645 6.67924 -0.000425611 6.55703 0.0455225 6.44596C0.0914705 6.33489 0.169359 6.23997 0.269316 6.17321C0.369273 6.10646 0.486798 6.07089 0.606995 6.071C0.686743 6.07067 0.765757 6.08624 0.839417 6.11681C0.913077 6.14737 0.979905 6.19231 1.03599 6.249L2.46999 7.683C2.62824 6.04424 3.259 4.48671 4.28564 3.19962C5.31228 1.91254 6.69061 0.951308 8.25318 0.432706C9.81575 -0.0858954 11.4953 -0.139544 13.0878 0.278279C14.6803 0.696101 16.1171 1.56741 17.2238 2.78635C18.3305 4.00529 19.0594 5.5194 19.3219 7.14472C19.5844 8.77004 19.3692 10.4366 18.7026 11.942C18.0359 13.4473 16.9464 14.7267 15.5664 15.6246C14.1864 16.5225 12.5754 17.0003 10.929 17Z" fill="#B4E7FF"/>
<path d="M7.01599 12.7501C6.87642 12.75 6.74113 12.7018 6.6329 12.6137C6.52468 12.5255 6.45015 12.4028 6.42185 12.2661C6.39355 12.1294 6.41322 11.9872 6.47754 11.8633C6.54187 11.7394 6.64692 11.6415 6.77499 11.5861C7.30899 11.3551 7.943 11.1211 8.614 10.8741L8.98499 10.7371C8.99123 10.7221 8.99658 10.7067 9.001 10.6911C9.06771 10.4051 9.06394 10.1072 8.98999 9.82305C8.57767 9.36553 8.26365 8.82823 8.06739 8.24443C7.87112 7.66063 7.79679 7.04275 7.84899 6.42905C7.81293 6.0027 7.86577 5.5735 8.00418 5.16863C8.14259 4.76376 8.36355 4.39204 8.65308 4.07699C8.9426 3.76194 9.29438 3.51044 9.68614 3.33839C10.0779 3.16635 10.5011 3.07751 10.929 3.07751C11.3569 3.07751 11.7801 3.16635 12.1718 3.33839C12.5636 3.51044 12.9154 3.76194 13.2049 4.07699C13.4944 4.39204 13.7154 4.76376 13.8538 5.16863C13.9922 5.5735 14.0451 6.0027 14.009 6.42905C14.061 7.04397 13.9862 7.663 13.7892 8.24784C13.5923 8.83267 13.2774 9.37085 12.864 9.82905C12.7939 10.1129 12.7918 10.4093 12.858 10.6941C12.8625 10.7097 12.8679 10.725 12.874 10.7401L13.208 10.8641C13.89 11.1151 14.533 11.3531 15.081 11.5881C15.1543 11.6194 15.2207 11.665 15.2763 11.722C15.332 11.779 15.3759 11.8465 15.4056 11.9205C15.4352 11.9945 15.4499 12.0736 15.449 12.1533C15.448 12.233 15.4314 12.3118 15.4 12.3851C15.3686 12.4583 15.3231 12.5247 15.2661 12.5804C15.209 12.6361 15.1416 12.68 15.0676 12.7096C14.9936 12.7392 14.9144 12.754 14.8347 12.753C14.755 12.7521 14.6763 12.7354 14.603 12.7041C14.003 12.4554 13.3977 12.2221 12.787 12.0041L12.381 11.8541C12.1931 11.7759 12.0285 11.6507 11.903 11.4904C11.7776 11.3301 11.6956 11.1402 11.665 10.9391C11.581 10.6215 11.5616 10.2903 11.6079 9.96516C11.6543 9.63999 11.7655 9.32744 11.935 9.04605C12.2495 8.70477 12.4885 8.30098 12.6363 7.86107C12.7841 7.42116 12.8375 6.955 12.793 6.49305C12.7897 6.45446 12.7897 6.41565 12.793 6.37705C12.8271 6.1176 12.8066 5.85389 12.7329 5.6028C12.6593 5.3517 12.534 5.11876 12.3651 4.91887C12.1962 4.71898 11.9874 4.55655 11.7522 4.44197C11.5169 4.32739 11.2603 4.26319 10.9988 4.25347C10.7373 4.24376 10.4767 4.28874 10.2335 4.38554C9.99043 4.48235 9.7702 4.62884 9.58694 4.81565C9.40369 5.00245 9.26146 5.22546 9.16934 5.47039C9.07723 5.71532 9.03726 5.97679 9.052 6.23805C9.052 6.28405 9.052 6.33005 9.06 6.37605C9.06403 6.41528 9.06403 6.45483 9.06 6.49405C9.0154 6.95508 9.06859 7.42033 9.21609 7.8594C9.3636 8.29847 9.60209 8.70146 9.916 9.04205C10.0868 9.32415 10.1992 9.63776 10.2462 9.96419C10.2933 10.2906 10.2742 10.6232 10.19 10.9421C10.159 11.1432 10.0767 11.3329 9.95088 11.4928C9.82509 11.6528 9.66014 11.7775 9.472 11.8551L9.03199 12.0181C8.37699 12.2591 7.75899 12.4881 7.25399 12.7051C7.17729 12.7356 7.09555 12.7515 7.013 12.7521L7.01599 12.7501Z" fill="#B4E7FF"/>
</svg>
